<svg width="502" height="333" viewBox="0 0 502 333" fill="none" xmlns="http://www.w3.org/2000/svg">
<g clip-path="url(#clip0_14_2)">
<path d="M254.309 93.5931C249.833 86.1976 244.529 78.3014 236.223 75.8866C226.603 73.09 216.722 78.6454 208.34 84.1275C183.273 100.523 159.134 118.29 136.032 137.349L136.057 137.636C154.043 136.397 172.029 135.158 190.014 133.919C203.009 133.024 216.45 132.005 227.934 125.864C232.292 123.533 236.54 120.421 241.478 120.204C247.613 119.934 252.962 124.215 257.166 128.687C282.033 155.139 289.229 195.592 317.127 218.833C299.535 175.493 278.53 133.615 254.309 93.5931V93.5931Z" fill="#F2F2F2"/>
<path d="M407.163 317.962C404.413 314.493 403.289 313.681 400.577 310.18C378.49 281.644 357.731 252.143 338.299 221.679C325.099 200.989 312.555 179.902 300.664 158.417C295.004 148.203 289.498 137.909 284.148 127.535C279.996 119.491 275.937 111.399 271.971 103.258C270.836 100.933 269.734 98.5976 268.637 96.2565C266.053 90.7513 263.517 85.2194 260.794 79.789C257.691 73.5996 253.913 67.1109 248.215 62.9526C245.622 60.9825 242.521 59.7905 239.274 59.5159C234.636 59.2166 230.355 61.13 226.332 63.2199C196.894 78.5543 169.335 97.7799 144.408 119.656C119.417 141.582 97.0788 166.353 77.8494 193.464C77.2611 194.303 75.87 193.501 76.4638 192.657C78.8019 189.354 81.1864 186.086 83.6172 182.854C113.843 142.696 150.904 108.162 193.106 80.8312C200.207 76.2346 207.44 71.8536 214.807 67.6881C218.52 65.5876 222.25 63.5138 226.043 61.5683C229.762 59.6602 233.71 57.9444 237.958 57.8803C252.415 57.6558 259.9 74.0111 265.042 85.0163C266.658 88.4797 268.293 91.9325 269.948 95.3746C276.202 108.443 282.698 121.392 289.434 134.221C293.591 142.142 297.839 150.017 302.179 157.846C315.683 182.224 330.036 206.108 345.238 229.499C365.377 260.483 385.355 287.854 408.297 316.829C408.928 317.631 407.8 318.774 407.163 317.962Z" fill="#E4E4E4"/>
<path d="M142.979 111.58C142.139 110.645 141.304 109.71 140.459 108.774C133.792 101.409 126.639 94.1293 117.485 89.9068C113.12 87.8299 108.355 86.7265 103.52 86.6731C98.5231 86.6892 93.6383 87.9987 89.021 89.832C86.838 90.7032 84.7031 91.692 82.6006 92.7449C80.1982 93.9529 77.8386 95.241 75.49 96.5398C71.0812 98.9771 66.7296 101.521 62.4352 104.172C53.8906 109.448 45.6136 115.126 37.6042 121.206C33.4522 124.36 29.3859 127.617 25.4053 130.977C21.7029 134.098 18.0754 137.303 14.5228 140.592C13.7631 141.292 12.6288 140.159 13.3885 139.459C14.3248 138.588 15.2718 137.722 16.2188 136.867C18.894 134.451 21.612 132.081 24.3729 129.758C29.4073 125.514 34.5722 121.434 39.8674 117.518C48.1016 111.425 56.6193 105.745 65.4205 100.479C69.8186 97.8493 74.2772 95.3301 78.7963 92.9213C80.1608 92.1944 81.5413 91.4836 82.9376 90.8101C86.1061 89.2135 89.3983 87.8747 92.7822 86.8068C97.5756 85.2577 102.647 84.76 107.651 85.3476C112.482 86.0496 117.136 87.6582 121.369 90.0885C130.358 95.1074 137.329 102.868 144.113 110.442C144.798 111.211 143.669 112.35 142.979 111.58Z" fill="#E4E4E4"/>
<path d="M327.15 187.904L348.689 180.034L359.383 176.127C362.866 174.854 366.34 173.405 369.941 172.494C373.07 171.601 376.392 171.643 379.497 172.616C382.266 173.64 384.801 175.209 386.951 177.231C389.147 179.252 391.19 181.432 393.064 183.753C395.392 186.549 397.686 189.373 399.99 192.188C409.5 203.807 418.948 215.475 428.333 227.195C437.719 238.914 447.041 250.682 456.301 262.501C465.583 274.348 474.802 286.245 483.957 298.192C485.078 299.655 486.199 301.12 487.318 302.585C487.937 303.394 489.331 302.596 488.704 301.775C479.482 289.709 470.195 277.691 460.844 265.723C451.471 253.727 442.032 241.781 432.529 229.887C423.025 217.992 413.458 206.149 403.826 194.358C401.427 191.42 399.023 188.486 396.616 185.555C394.585 183.082 392.577 180.583 390.35 178.282C386.261 174.058 381.153 170.325 375.039 170.223C371.444 170.164 367.965 171.303 364.624 172.511C361.024 173.812 357.431 175.138 353.835 176.452L332.146 184.376L326.724 186.358C325.761 186.709 326.177 188.259 327.15 187.904L327.15 187.904Z" fill="#E4E4E4"/>
<path d="M114.65 99.1745C103.705 93.5548 89.6875 94.6555 79.6294 101.676C98.8145 104.983 117.79 109.407 136.458 114.926C128.706 110.388 122.642 103.278 114.65 99.1745Z" fill="#F2F2F2"/>
<path d="M79.5217 101.657L77.4146 103.368C78.1273 102.769 78.8683 102.208 79.6294 101.676C79.5935 101.67 79.5577 101.663 79.5217 101.657Z" fill="#F2F2F2"/>
<path d="M386.139 187.982C384.019 185.404 381.727 182.705 378.556 181.657L375.595 181.774C398.133 221.56 428.573 256.324 465.046 283.934C438.744 251.95 412.442 219.966 386.139 187.982Z" fill="#F2F2F2"/>
<path d="M202.024 166.714C203.394 171.687 206.481 176.015 210.738 178.933C212.384 180.053 214.331 181.127 214.894 183.035C215.191 184.251 215.008 185.535 214.385 186.62C213.762 187.692 213.005 188.68 212.131 189.56L212.051 189.858C207.967 187.44 204.081 184.382 201.825 180.208C199.568 176.035 199.254 170.565 202.024 166.714" fill="#F2F2F2"/>
<path d="M338.01 285.07C339.38 290.043 342.467 294.372 346.724 297.29C348.37 298.409 350.318 299.483 350.881 301.391C351.177 302.607 350.994 303.891 350.371 304.977C349.748 306.049 348.991 307.036 348.117 307.916L348.038 308.215C343.953 305.797 340.067 302.738 337.811 298.565C335.555 294.391 335.24 288.922 338.01 285.07" fill="#F2F2F2"/>
<path d="M66.6215 276.908C67.9916 281.88 71.0784 286.209 75.3357 289.127C76.9817 290.247 78.929 291.321 79.4921 293.229C79.7883 294.445 79.6058 295.728 78.9822 296.814C78.3598 297.886 77.6024 298.874 76.7287 299.754L76.6489 300.052C72.5644 297.634 68.6786 294.575 66.4224 290.402C64.1661 286.229 63.8512 280.759 66.6215 276.908" fill="#F2F2F2"/>
<path d="M378.922 59.4697C395.361 59.4697 408.688 46.157 408.688 29.7348C408.688 13.3127 395.361 0 378.922 0C362.484 0 349.157 13.3127 349.157 29.7348C349.157 46.157 362.484 59.4697 378.922 59.4697Z" fill="#0DCA7A"/>
<path d="M432.637 6.92086C418.211 4.97297 401.742 12.7621 398.003 26.8161C397.061 24.3173 395.348 22.1824 393.112 20.7199C390.876 19.2574 388.232 18.5429 385.562 18.6798C382.893 18.8166 380.336 19.7977 378.261 21.4812C376.187 23.1647 374.701 25.4635 374.02 28.0456L375.672 29.2272C406.585 35.9054 438.585 35.7609 469.437 28.8037C459.403 18.2688 447.063 8.86871 432.637 6.92086Z" fill="#F0F0F0"/>
<path d="M370.772 46.5673C356.347 44.6194 339.878 52.4086 336.139 66.4626C335.197 63.9638 333.483 61.8289 331.247 60.3664C329.011 58.9038 326.367 58.1894 323.697 58.3262C321.028 58.4631 318.471 59.4441 316.397 61.1276C314.322 62.8112 312.837 65.11 312.155 67.692L313.807 68.8736C344.72 75.5519 376.721 75.4074 407.572 68.4501C397.538 57.9153 385.198 48.5152 370.772 46.5673Z" fill="#F0F0F0"/>
<path d="M496.677 54.0639C496.617 54.064 496.558 54.0548 496.501 54.0366C342.185 5.28416 206.177 11.6594 119.253 25.5925C107.424 27.4879 95.5627 29.6772 83.9995 32.0998C81.0474 32.7176 77.9848 33.3798 74.8968 34.0693C71.2089 34.8897 67.57 35.7347 64.0808 36.5797C62.5738 36.9361 61.0963 37.2954 59.6483 37.6575C57.4548 38.1984 55.2291 38.762 52.8433 39.3815C50.1773 40.0682 47.4686 40.7884 44.7907 41.5223C44.7809 41.5258 44.7709 41.5286 44.7608 41.5309L44.7611 41.5315C41.7363 42.3565 38.7275 43.2054 35.8179 44.0532C34.2432 44.5076 32.7225 44.9557 31.266 45.3981C31.1033 45.4431 30.9591 45.4863 30.8129 45.5307L30.5 45.6258C30.3188 45.681 30.1398 45.7351 29.9608 45.7864L29.9494 45.7898L29.9497 45.7904L29.4761 45.9373C28.9113 46.1081 28.3601 46.2749 27.8181 46.4412C13.4929 50.8527 5.61784 53.9911 5.54004 54.0218C5.4689 54.0503 5.39284 54.0645 5.3162 54.0636C5.23956 54.0627 5.16385 54.0468 5.09338 54.0167C5.02291 53.9866 4.95906 53.9429 4.90549 53.8881C4.85192 53.8334 4.80967 53.7686 4.78115 53.6975C4.75264 53.6265 4.73842 53.5505 4.7393 53.4739C4.74018 53.3974 4.75614 53.3217 4.78628 53.2513C4.81642 53.1809 4.86014 53.1172 4.91496 53.0636C4.96977 53.0101 5.0346 52.9679 5.10574 52.9394C5.18411 52.9087 13.0976 49.7544 27.475 45.3264C28.019 45.1595 28.5716 44.9927 29.1381 44.8213L29.5781 44.6847C29.5932 44.679 29.6083 44.6744 29.6237 44.6699C29.8018 44.6192 29.9796 44.5651 30.1603 44.5105L30.4738 44.4154C30.6299 44.3681 30.7838 44.3214 30.9414 44.2782C32.388 43.8386 33.9137 43.3894 35.4925 42.9333C38.4032 42.0849 41.4149 41.236 44.4419 40.4098C44.4513 40.4064 44.461 40.4042 44.4704 40.4013V40.4007C47.1577 39.6645 49.8764 38.9414 52.5509 38.2525C54.9404 37.6324 57.1704 37.0676 59.3676 36.5256C60.8218 36.164 62.3021 35.804 63.8086 35.4455C67.3019 34.5994 70.9481 33.7533 74.6426 32.9311C77.7354 32.2411 80.8032 31.5772 83.7601 30.9588C95.3413 28.5322 107.221 26.3395 119.068 24.4412C206.116 10.4882 342.319 4.1027 496.853 52.9252C496.985 52.967 497.099 53.0551 497.173 53.1733C497.246 53.2915 497.275 53.4321 497.254 53.5697C497.232 53.7073 497.163 53.8328 497.057 53.9234C496.951 54.014 496.816 54.0639 496.677 54.0639V54.0639Z" fill="#CCCCCC"/>
<path d="M153.489 244.782C153.287 244.192 152.946 243.658 152.496 243.225C152.33 243.071 152.151 242.933 151.96 242.811C150.436 241.797 148.16 241.569 146.713 242.811C146.567 242.938 146.432 243.076 146.31 243.225C145.878 243.756 145.435 244.275 144.979 244.782C144.232 245.633 143.468 246.455 142.668 247.254C142.44 247.476 142.213 247.703 141.979 247.925C141.845 248.059 141.711 248.187 141.577 248.315C141.063 248.805 140.538 249.277 140.007 249.744C139.727 249.994 139.446 250.239 139.16 250.478C138.734 250.834 138.308 251.19 137.877 251.534C137.836 251.563 137.795 251.592 137.754 251.627C137.742 251.633 137.736 251.644 137.725 251.65C137.719 251.65 137.713 251.65 137.707 251.662C137.691 251.668 137.677 251.678 137.666 251.691C137.538 251.778 137.45 251.837 137.386 251.889C137.41 251.878 137.433 251.86 137.456 251.848C137.351 251.93 137.24 252.012 137.135 252.093C136.114 252.845 135.069 253.568 134.001 254.245C131.359 255.934 128.583 257.406 125.702 258.647C125.509 258.722 125.311 258.804 125.112 258.88C117.569 261.967 109.386 263.172 101.271 262.39C100.442 262.325 99.6136 262.238 98.7848 262.127C97.8277 261.987 96.8764 261.818 95.9309 261.626C92.3314 260.908 88.8094 259.846 85.4138 258.454C81.1662 256.511 77.1264 254.143 73.356 251.388C72.7724 250.974 72.1829 250.56 71.5934 250.158C72.2646 248.513 72.9241 246.869 73.5661 245.213C73.8871 244.415 74.1964 243.616 74.4999 242.811C76.887 236.614 79.1281 230.358 81.2759 224.078C83.447 217.717 85.4955 211.32 87.4215 204.885C87.62 204.232 87.8126 203.579 87.9993 202.926C89.009 199.527 89.9778 196.12 90.9058 192.705C90.9934 192.373 91.0867 192.046 91.1685 191.714C91.4369 190.734 91.6995 189.755 91.9564 188.775C92.54 186.566 91.221 183.925 88.8981 183.394C87.7797 183.108 86.5937 183.266 85.5899 183.836C84.5861 184.406 83.843 185.343 83.517 186.449C83.2661 187.394 83.0151 188.332 82.7583 189.277C81.5269 193.842 80.2312 198.392 78.8713 202.926C78.6729 203.579 78.4745 204.232 78.276 204.885C75.2762 214.761 71.9825 224.539 68.3951 234.217C67.9632 235.389 67.5255 236.557 67.082 237.721C66.866 238.293 66.6501 238.864 66.4283 239.436C66.0022 240.561 65.5645 241.686 65.1268 242.811C64.8758 243.47 64.619 244.129 64.3623 244.782C64.193 245.196 64.0296 245.61 63.8662 246.018C62.2021 245.421 60.4781 245.007 58.7244 244.782L58.4442 244.747C57.0846 244.584 55.7096 244.595 54.353 244.782C52.3225 245.019 50.3689 245.698 48.6303 246.772C46.8916 247.846 45.4103 249.288 44.2911 250.997C41.5072 255.376 41.5422 261.638 45.4467 265.357C49.468 269.188 55.5552 269.159 60.2885 266.762C62.7968 265.407 64.9118 263.426 66.4283 261.014C67.0093 260.139 67.5431 259.234 68.0275 258.303C68.15 258.384 68.2726 258.466 68.3951 258.553C68.862 258.88 69.3289 259.212 69.79 259.539C72.4765 261.483 75.3075 263.22 78.2585 264.733C84.6037 267.885 91.434 269.948 98.4638 270.838C98.6214 270.855 98.7732 270.879 98.9307 270.896C99.707 270.995 100.489 271.071 101.271 271.135C112.49 271.98 123.722 269.686 133.709 264.512C134.556 264.075 135.394 263.616 136.225 263.136C137.515 262.39 138.775 261.597 140.007 260.757C140.678 260.302 141.332 259.842 141.979 259.358C144.81 257.275 147.449 254.943 149.864 252.391C150.781 251.429 151.658 250.435 152.496 249.411C153.289 248.573 153.746 247.474 153.78 246.321C153.776 245.795 153.677 245.273 153.489 244.782V244.782ZM56.8451 258.67C56.9676 258.582 57.0902 258.489 57.2069 258.396C57.1719 258.483 57.0026 258.582 56.8451 258.67H56.8451ZM58.7185 256.787C58.5843 256.938 58.4617 257.09 58.3275 257.241C57.9191 257.698 57.4804 258.127 57.0143 258.524C56.9501 258.582 56.8801 258.641 56.8101 258.693C56.8093 258.693 56.8085 258.693 56.8078 258.694C56.8071 258.694 56.8064 258.694 56.8059 258.695C56.8053 258.695 56.8049 258.696 56.8046 258.697C56.8043 258.697 56.8042 258.698 56.8042 258.699C56.7199 258.737 56.638 258.779 56.5591 258.827C56.3081 258.979 56.0513 259.119 55.7887 259.247C55.2745 259.436 54.7455 259.582 54.2071 259.684C53.7933 259.714 53.3781 259.718 52.9639 259.696H52.9522C52.6664 259.633 52.3839 259.555 52.106 259.463C51.9659 259.393 51.8317 259.311 51.6974 259.23C51.6449 259.183 51.5982 259.136 51.569 259.107C51.512 259.055 51.4593 258.999 51.4115 258.938C51.4115 258.937 51.4114 258.937 51.4111 258.936C51.4108 258.935 51.4104 258.934 51.4098 258.934C51.4093 258.933 51.4086 258.933 51.4079 258.933C51.4072 258.932 51.4064 258.932 51.4057 258.932C51.3414 258.816 51.2714 258.699 51.2072 258.582C51.2039 258.579 51.2018 258.575 51.2014 258.571C51.1547 258.425 51.1138 258.273 51.0788 258.122C51.0662 257.856 51.0681 257.589 51.0846 257.323C51.163 256.951 51.2683 256.584 51.3998 256.227C51.518 255.974 51.6525 255.728 51.8025 255.492C51.8142 255.469 51.8726 255.376 51.9368 255.271C51.9426 255.265 51.9426 255.265 51.9426 255.259C52.0301 255.16 52.1177 255.055 52.2111 254.962C52.3687 254.787 52.5379 254.635 52.7072 254.478C53.0363 254.263 53.3773 254.066 53.7285 253.889C54.2857 253.691 54.8574 253.537 55.4386 253.428C56.2955 253.36 57.1568 253.368 58.0124 253.452C58.8227 253.592 59.6223 253.789 60.4052 254.041C59.9307 254.961 59.3904 255.845 58.7886 256.688C58.7652 256.723 58.7419 256.758 58.7185 256.787V256.787ZM52.2285 254.868C52.1771 254.951 52.1164 255.027 52.0476 255.096C52.0939 255.01 52.1552 254.933 52.2285 254.868V254.868Z" fill="#3F3D56"/>
<path d="M135.945 185.236C135.892 187.067 135.84 188.898 135.787 190.729C135.676 194.792 135.561 198.858 135.443 202.926C135.32 207.503 135.192 212.077 135.057 216.65C134.993 219.012 134.927 221.373 134.859 223.734C134.678 230.095 134.499 236.454 134.322 242.811C134.305 243.47 134.281 244.123 134.264 244.782C134.176 247.936 134.089 251.09 134.001 254.245C133.902 257.667 133.805 261.089 133.709 264.512C133.639 267.077 133.567 269.645 133.493 272.214C132.968 290.83 132.443 309.447 131.918 328.063C131.895 329.216 131.427 330.315 130.611 331.13C129.795 331.946 128.694 332.413 127.54 332.436C126.382 332.426 125.274 331.963 124.455 331.145C123.637 330.327 123.172 329.22 123.163 328.063C123.455 317.592 123.751 307.12 124.05 296.649C124.313 287.18 124.579 277.712 124.85 268.243C124.937 265.124 125.025 262.003 125.112 258.88C125.247 254.18 125.379 249.481 125.509 244.782C125.527 244.123 125.55 243.47 125.568 242.811C125.579 242.234 125.597 241.663 125.614 241.086C125.871 231.961 126.128 222.835 126.385 213.706C126.49 210.115 126.591 206.521 126.688 202.926C126.805 198.827 126.922 194.73 127.038 190.635C127.091 188.834 127.138 187.038 127.19 185.236C127.212 184.084 127.681 182.984 128.497 182.169C129.313 181.354 130.413 180.886 131.567 180.864C132.725 180.873 133.833 181.337 134.652 182.155C135.471 182.973 135.935 184.08 135.945 185.236V185.236Z" fill="#3F3D56"/>
<path d="M376.067 186.45C371.477 203.813 365.991 220.926 359.631 237.723C357.876 242.356 356.081 246.98 354.162 251.548L354.603 250.503C353.747 252.679 352.653 254.754 351.341 256.69C351.252 256.815 351.161 256.939 351.068 257.061C351.522 256.482 351.608 256.367 351.327 256.718C351.179 256.893 351.032 257.069 350.879 257.24C350.47 257.697 350.032 258.126 349.566 258.524C349.449 258.625 349.33 258.723 349.209 258.819L349.757 258.393C349.693 258.543 349.247 258.742 349.108 258.827C348.659 259.098 348.19 259.335 347.705 259.537L348.75 259.096C347.956 259.416 347.127 259.643 346.281 259.773L347.445 259.617C346.613 259.732 345.77 259.741 344.936 259.644L346.1 259.8C345.418 259.706 344.75 259.526 344.113 259.265L345.158 259.706C344.818 259.558 344.491 259.383 344.179 259.183C344.02 259.08 343.533 258.712 344.17 259.198C344.831 259.703 344.255 259.241 344.119 259.107C344.005 258.995 343.903 258.874 343.792 258.76C343.277 258.233 344.374 259.668 344.024 259.051C343.837 258.742 343.666 258.423 343.511 258.096L343.952 259.141C343.752 258.644 343.609 258.125 343.527 257.595L343.684 258.758C343.6 258.099 343.6 257.432 343.682 256.772L343.526 257.935C343.633 257.199 343.828 256.479 344.106 255.789L343.665 256.834C343.859 256.37 344.089 255.922 344.352 255.494C344.474 255.272 344.616 255.063 344.778 254.869C344.806 254.878 344.037 255.751 344.445 255.31C344.552 255.195 344.652 255.074 344.76 254.959C344.933 254.776 345.118 254.609 345.3 254.436C345.91 253.856 344.447 254.999 345.15 254.54C345.66 254.205 346.197 253.913 346.755 253.666L345.709 254.107C346.644 253.724 347.624 253.461 348.625 253.326L347.461 253.482C348.715 253.338 349.982 253.353 351.232 253.527L350.068 253.37C351.651 253.61 353.198 254.045 354.674 254.665L353.628 254.224C356.774 255.573 359.56 257.576 362.341 259.54C365.027 261.483 367.857 263.219 370.807 264.733C377.153 267.885 383.983 269.949 391.014 270.839C401.096 272.073 411.327 270.758 420.769 267.014C430.21 263.27 438.559 257.218 445.05 249.412C445.841 248.573 446.298 247.472 446.332 246.32C446.323 245.162 445.863 244.052 445.05 243.228C443.444 241.755 440.41 241.339 438.859 243.228C437.389 245.02 435.809 246.72 434.128 248.316C433.343 249.06 432.537 249.781 431.71 250.479C431.238 250.877 430.759 251.268 430.274 251.651C430.044 251.833 429.329 252.315 430.428 251.536C430.176 251.715 429.934 251.91 429.686 252.093C426.01 254.8 422.027 257.063 417.82 258.836L418.865 258.395C414.35 260.287 409.608 261.585 404.758 262.256L405.922 262.1C400.933 262.755 395.878 262.748 390.891 262.078L392.055 262.234C387.069 261.55 382.192 260.223 377.547 258.286L378.593 258.727C374.111 256.746 369.857 254.285 365.907 251.386C363.851 249.865 361.683 248.502 359.421 247.308C356.786 245.964 353.933 245.098 350.995 244.75C345.486 244.102 339.872 246.245 336.844 251C334.057 255.376 334.093 261.637 337.996 265.357C342.016 269.189 348.103 269.157 352.841 266.76C357.403 264.451 360.144 259.655 362.071 255.133C366.408 244.956 370.248 234.544 373.825 224.079C377.365 213.725 380.574 203.267 383.454 192.704C383.811 191.395 384.162 190.086 384.509 188.775C385.093 186.566 383.773 183.924 381.452 183.396C380.333 183.108 379.146 183.266 378.141 183.836C377.137 184.405 376.393 185.343 376.067 186.45L376.067 186.45Z" fill="#3F3D56"/>
<path d="M419.742 185.236L418.166 241.087L416.599 296.647L415.713 328.063C415.723 329.22 416.187 330.326 417.006 331.144C417.825 331.962 418.932 332.426 420.09 332.436C421.244 332.414 422.345 331.946 423.161 331.13C423.977 330.315 424.445 329.216 424.467 328.063L426.043 272.212L427.61 216.652L428.497 185.236C428.487 184.08 428.022 182.973 427.204 182.155C426.385 181.337 425.277 180.873 424.119 180.863C422.965 180.886 421.865 181.354 421.049 182.169C420.233 182.984 419.764 184.083 419.742 185.236V185.236Z" fill="#3F3D56"/>
<path opacity="0.2" d="M268.232 312.47H269.591V250.643H301.299V249.289H269.591V223.202H294.078C293.719 222.745 293.35 222.295 292.97 221.851H269.591V204.62C269.142 204.429 268.689 204.244 268.232 204.07V221.851H241.588V199.774C241.132 199.795 240.682 199.826 240.229 199.864V221.851H218.973V205.379C218.516 205.581 218.067 205.794 217.621 206.016V221.851H199.752V223.202H217.621V249.289H199.752V250.643H217.621V312.47H218.973V250.643C221.765 250.643 224.529 251.192 227.108 252.259C229.687 253.326 232.031 254.89 234.005 256.862C235.978 258.833 237.544 261.175 238.612 263.751C239.68 266.328 240.23 269.089 240.229 271.878V312.47H241.588V250.643H268.232V312.47ZM218.973 249.289V223.202H240.229V249.289H218.973ZM241.588 249.289V223.202H242.121C245.551 223.202 248.946 223.877 252.114 225.188C255.282 226.499 258.161 228.421 260.585 230.843C263.01 233.266 264.933 236.141 266.245 239.306C267.557 242.471 268.232 245.863 268.232 249.289H241.588Z" fill="black"/>
<path d="M259.931 293.932C258.22 301.557 254.121 308.44 248.229 313.58C247.798 313.953 247.366 314.315 246.916 314.671C245.825 314.77 244.741 314.871 243.665 314.974C242.772 315.055 241.891 315.143 241.016 315.224L240.858 315.242L240.747 314.286L240.304 310.414C238.583 307.608 237.516 304.451 237.183 301.177C236.85 297.903 237.258 294.596 238.378 291.501C239.919 287.349 242.708 283.682 245.451 280.044C249.239 275.018 252.922 270.051 253.056 263.923C254.92 266.306 256.469 268.918 257.667 271.695C256.537 272.226 255.522 272.973 254.679 273.893C254.439 274.155 254.2 274.523 254.363 274.837C254.503 275.106 254.854 275.17 255.157 275.205C255.887 275.281 256.622 275.356 257.352 275.432C257.935 275.496 258.519 275.555 259.103 275.619C259.809 277.934 260.287 280.312 260.532 282.72C260.926 286.466 260.723 290.25 259.931 293.932V293.932Z" fill="#3F3D56"/>
<path d="M279.308 278.651C275.865 281.152 273.851 284.749 272.287 288.714C270.684 289.226 269.242 290.146 268.102 291.384C267.863 291.646 267.624 292.014 267.787 292.329C267.927 292.597 268.278 292.661 268.581 292.696C269.311 292.772 270.046 292.847 270.775 292.923C269.211 297.611 267.776 302.462 265.009 306.421C263.169 309.034 260.771 311.207 257.988 312.781C257.229 313.213 256.446 313.601 255.642 313.942C252.677 314.169 249.769 314.412 246.917 314.671C245.825 314.77 244.742 314.871 243.666 314.974C242.773 315.055 241.892 315.143 241.016 315.224C241.01 314.904 241.01 314.583 241.016 314.262C241.201 305.72 244.346 297.506 249.916 291.023C250.179 290.719 250.448 290.422 250.722 290.125C253.544 287.114 256.862 284.609 260.533 282.72C266.316 279.716 272.798 278.311 279.308 278.651V278.651Z" fill="#0DCA7A"/>
<path d="M244.675 311.983L244.004 313.965L243.665 314.974C242.772 315.055 241.891 315.143 241.016 315.224L240.858 315.242C239.889 315.341 238.926 315.44 237.963 315.539C237.712 315.248 237.461 314.95 237.216 314.647C231.124 307.278 228.2 297.799 229.083 288.282C229.965 278.766 234.583 269.985 241.926 263.859C241.156 267.888 242.055 271.747 243.531 275.578C243.374 275.642 243.222 275.706 243.076 275.776C241.946 276.307 240.931 277.054 240.088 277.974C239.848 278.237 239.609 278.604 239.773 278.919C239.913 279.187 240.263 279.251 240.566 279.286C241.296 279.362 242.031 279.438 242.761 279.513C243.344 279.577 243.928 279.636 244.512 279.7C244.786 279.729 245.06 279.758 245.335 279.787C245.375 279.875 245.41 279.956 245.451 280.044C247.115 283.647 248.906 287.268 249.916 291.022C250.169 291.965 250.368 292.92 250.511 293.885C250.961 297.146 250.67 300.466 249.659 303.599C248.649 306.732 246.945 309.597 244.675 311.983V311.983Z" fill="#0DCA7A"/>
<path d="M303.423 227.419C298.398 217.629 290.614 209.391 281.459 203.338C272.275 197.293 261.736 193.611 250.782 192.622C249.346 192.491 247.907 192.415 246.464 192.393C244.759 192.367 219.111 199.758 210.52 205.792C201.933 211.753 194.869 219.648 189.898 228.838C184.936 238.079 182.496 248.461 182.821 258.942C183.247 269.486 186.189 279.776 191.402 288.954C196.545 298.103 203.846 305.857 212.672 311.545C221.624 317.25 230.616 332.38 241.185 332.914C251.834 333.452 263.978 319.18 273.691 314.847C283.403 310.478 291.799 303.642 298.043 295.021C304.11 286.572 308.035 276.78 309.482 266.483C310.984 255.94 310.284 245.066 306.679 234.989C305.755 232.4 304.667 229.872 303.423 227.419C302.384 225.376 299.34 224.623 297.434 225.851C296.452 226.455 295.741 227.414 295.448 228.528C295.156 229.642 295.305 230.826 295.863 231.834C296.473 233.034 297.041 234.254 297.565 235.494L297.124 234.449C299.108 239.215 300.457 244.221 301.137 249.339L300.981 248.176C301.704 253.728 301.691 259.351 300.942 264.899L301.098 263.737C300.342 269.285 298.859 274.709 296.689 279.872L297.131 278.827C296.014 281.461 294.713 284.013 293.237 286.464C292.489 287.702 291.695 288.911 290.855 290.091C290.487 290.609 290.107 291.118 289.724 291.625C289.224 292.288 290.405 290.761 289.888 291.41C289.8 291.521 289.713 291.632 289.625 291.742C289.36 292.073 289.091 292.401 288.818 292.726C286.998 294.895 285.013 296.919 282.879 298.78C282.347 299.243 281.807 299.696 281.258 300.139C280.984 300.36 280.714 300.59 280.428 300.795C280.439 300.787 281.35 300.096 280.811 300.497C280.641 300.623 280.473 300.751 280.303 300.877C279.171 301.715 278.009 302.51 276.817 303.263C274.072 304.99 271.192 306.494 268.205 307.76L269.25 307.319C264.098 309.486 258.683 310.966 253.144 311.722L254.308 311.566C248.772 312.313 243.161 312.323 237.622 311.595L238.786 311.751C233.752 311.076 228.828 309.746 224.14 307.796L225.185 308.237C222.469 307.091 219.851 305.728 217.355 304.161C216.12 303.383 214.917 302.558 213.746 301.684C213.579 301.56 213.414 301.433 213.247 301.308C212.713 300.905 213.631 301.605 213.638 301.61C213.328 301.387 213.029 301.149 212.742 300.896C212.177 300.436 211.62 299.965 211.072 299.484C208.881 297.555 206.834 295.468 204.948 293.24C204.476 292.682 204.014 292.117 203.563 291.543C203.367 291.294 203.01 290.79 203.799 291.851C203.695 291.712 203.587 291.575 203.483 291.436C203.231 291.103 202.983 290.767 202.738 290.428C201.881 289.244 201.066 288.03 200.294 286.787C198.549 283.973 197.026 281.028 195.738 277.978L196.18 279.023C194.073 274.016 192.633 268.756 191.896 263.376L192.052 264.538C191.387 259.579 191.377 254.554 192.024 249.592L191.867 250.754C192.53 245.949 193.824 241.252 195.716 236.785L195.275 237.83C196.465 235.033 197.869 232.332 199.474 229.751C200.278 228.459 201.13 227.199 202.029 225.97C202.234 225.691 202.44 225.413 202.649 225.138C202.838 224.888 203.358 224.267 202.471 225.364C202.558 225.256 202.642 225.146 202.727 225.037C203.221 224.412 203.727 223.797 204.245 223.192C206.204 220.9 208.327 218.753 210.596 216.767C211.17 216.264 211.753 215.773 212.344 215.292C212.613 215.073 212.884 214.857 213.156 214.643C213.265 214.558 213.375 214.474 213.484 214.387C212.318 215.314 213.16 214.64 213.425 214.442C214.644 213.529 215.896 212.662 217.18 211.84C220.036 210.016 223.04 208.435 226.161 207.113L225.115 207.554C229.644 205.654 249.71 201.17 253.359 201.66L252.196 201.504C257.56 202.252 262.802 203.699 267.79 205.808L266.744 205.367C269.272 206.439 271.728 207.672 274.098 209.057C275.282 209.751 276.443 210.482 277.581 211.251C278.119 211.615 278.652 211.987 279.179 212.367C279.443 212.557 279.704 212.75 279.965 212.944C280.109 213.052 280.253 213.161 280.397 213.269C281.004 213.723 279.562 212.611 280.198 213.114C282.326 214.784 284.347 216.586 286.249 218.509C287.183 219.459 288.085 220.44 288.955 221.45C289.401 221.969 289.838 222.495 290.266 223.029C290.479 223.294 291.203 224.254 290.315 223.078C290.532 223.365 290.752 223.651 290.966 223.94C292.81 226.434 294.448 229.074 295.863 231.834C296.91 233.873 299.941 234.633 301.852 233.402C302.835 232.799 303.546 231.84 303.838 230.725C304.131 229.611 303.982 228.427 303.423 227.419Z" fill="#3F3D56"/>
<path d="M252.419 298.78C251.967 298.801 251.52 298.682 251.138 298.441C250.756 298.199 250.457 297.846 250.282 297.429C250.108 297.012 250.066 296.552 250.162 296.11C250.258 295.669 250.488 295.267 250.82 294.961C250.876 294.74 250.916 294.581 250.971 294.36C250.951 294.312 250.931 294.264 250.911 294.216C248.88 289.378 235.921 302.864 235.36 307.411C235.114 309.421 235.218 311.458 235.668 313.433C231.47 304.285 229.29 294.342 229.276 284.279C229.275 281.754 229.416 279.231 229.697 276.721C229.929 274.664 230.252 272.621 230.664 270.593C232.914 259.589 237.745 249.275 244.76 240.499C248.771 240.722 252.287 240.112 252.627 232.345C252.687 230.963 253.713 229.767 253.939 228.406C253.556 228.456 253.167 228.487 252.784 228.512C252.664 228.519 252.539 228.525 252.42 228.531L252.375 228.533C251.954 228.552 251.536 228.449 251.173 228.236C250.809 228.024 250.515 227.711 250.325 227.335C250.135 226.959 250.058 226.536 250.104 226.118C250.149 225.699 250.314 225.303 250.58 224.976C250.745 224.773 250.91 224.57 251.076 224.366C251.327 224.053 251.585 223.745 251.836 223.432C251.865 223.402 251.892 223.371 251.917 223.338C252.206 222.98 252.495 222.629 252.784 222.271C252.257 221.454 251.547 220.769 250.712 220.271C247.817 218.577 243.824 219.75 241.733 222.366C239.636 224.981 239.241 228.65 239.969 231.918C240.685 234.699 241.87 237.337 243.472 239.721C243.315 239.922 243.152 240.116 242.995 240.317C240.126 244.003 237.625 247.961 235.529 252.134C236.122 247.505 228.868 230.79 226.063 227.25C222.694 222.997 215.785 224.853 215.191 230.244C215.186 230.296 215.18 230.348 215.174 230.4C215.591 230.635 215.999 230.884 216.398 231.148C216.899 231.483 217.288 231.961 217.512 232.52C217.737 233.078 217.788 233.692 217.657 234.28C217.527 234.868 217.222 235.403 216.782 235.815C216.342 236.227 215.787 236.496 215.192 236.588L215.131 236.597C209.554 244.552 227.432 265.256 231.907 260.608C229.801 266.571 228.48 272.782 227.977 279.086C227.692 282.805 227.709 286.54 228.027 290.257L228.008 290.125C227.014 282.031 209.956 269.997 204.974 270.999C202.105 271.577 199.278 271.445 199.714 274.337C199.721 274.383 199.728 274.429 199.735 274.476C200.508 274.79 201.261 275.153 201.989 275.561C202.406 275.796 202.814 276.045 203.213 276.308C203.714 276.643 204.103 277.121 204.327 277.68C204.552 278.239 204.602 278.852 204.472 279.44C204.342 280.028 204.036 280.563 203.596 280.975C203.156 281.387 202.602 281.656 202.006 281.748L201.945 281.758C201.901 281.764 201.864 281.77 201.82 281.777C199.281 290.502 218.107 304.585 229.553 300.104H229.559C230.693 305.028 232.337 309.82 234.463 314.405H251.98C252.043 314.21 252.099 314.01 252.156 313.815C250.534 313.917 248.907 313.82 247.309 313.527C248.608 311.934 249.908 310.328 251.208 308.735C251.237 308.705 251.264 308.673 251.289 308.641C251.949 307.825 252.614 307.016 253.273 306.201L253.274 306.2C253.309 303.7 253.022 301.207 252.42 298.781L252.419 298.78ZM232.359 259.359L232.368 259.347L232.359 259.372V259.359ZM228.479 294.302L228.328 293.963C228.335 293.719 228.335 293.474 228.328 293.223C228.328 293.154 228.316 293.085 228.316 293.016C228.372 293.449 228.422 293.882 228.485 294.315L228.479 294.302Z" fill="#3F3D56"/>
<path d="M55.5904 262.366C59.136 262.366 62.0103 259.495 62.0103 255.953C62.0103 252.411 59.136 249.54 55.5904 249.54C52.0447 249.54 49.1704 252.411 49.1704 255.953C49.1704 259.495 52.0447 262.366 55.5904 262.366Z" fill="#3F3D56"/>
<path d="M132.629 332.331C136.175 332.331 139.049 329.459 139.049 325.917C139.049 322.375 136.175 319.504 132.629 319.504C129.084 319.504 126.209 322.375 126.209 325.917C126.209 329.459 129.084 332.331 132.629 332.331Z" fill="#3F3D56"/>
<path d="M425.029 332.331C428.575 332.331 431.449 329.459 431.449 325.917C431.449 322.375 428.575 319.504 425.029 319.504C421.484 319.504 418.609 322.375 418.609 325.917C418.609 329.459 421.484 332.331 425.029 332.331Z" fill="#3F3D56"/>
<path d="M440.787 250.706C444.333 250.706 447.207 247.834 447.207 244.292C447.207 240.75 444.333 237.879 440.787 237.879C437.241 237.879 434.367 240.75 434.367 244.292C434.367 247.834 437.241 250.706 440.787 250.706Z" fill="#3F3D56"/>
<path d="M422.111 191.236C425.657 191.236 428.531 188.365 428.531 184.822C428.531 181.28 425.657 178.409 422.111 178.409C418.565 178.409 415.691 181.28 415.691 184.822C415.691 188.365 418.565 191.236 422.111 191.236Z" fill="#3F3D56"/>
<path d="M154.224 244.292C154.22 245.93 153.586 247.504 152.453 248.689C151.32 249.873 149.774 250.576 148.136 250.654C146.498 250.731 144.893 250.176 143.653 249.105C142.413 248.033 141.633 246.525 141.474 244.895C141.315 243.264 141.79 241.635 142.8 240.345C143.81 239.054 145.279 238.201 146.901 237.962C148.523 237.723 150.176 238.116 151.516 239.06C152.856 240.003 153.782 241.426 154.102 243.033C154.184 243.448 154.225 243.869 154.224 244.292V244.292Z" fill="#3F3D56"/>
<path d="M282.623 209.893C286.169 209.893 289.043 207.022 289.043 203.48C289.043 199.938 286.169 197.066 282.623 197.066C279.077 197.066 276.203 199.938 276.203 203.48C276.203 207.022 279.077 209.893 282.623 209.893Z" fill="#3F3D56"/>
<path d="M219.007 203.48C219.003 205.118 218.369 206.692 217.236 207.876C216.102 209.06 214.557 209.764 212.919 209.841C211.281 209.919 209.676 209.364 208.435 208.292C207.195 207.22 206.415 205.713 206.257 204.082C206.098 202.452 206.573 200.823 207.583 199.532C208.593 198.242 210.061 197.389 211.684 197.149C213.306 196.91 214.958 197.303 216.299 198.247C217.639 199.191 218.565 200.613 218.884 202.22C218.967 202.635 219.008 203.057 219.007 203.48V203.48Z" fill="#3F3D56"/>
<path d="M136.131 184.822C136.128 186.461 135.493 188.035 134.36 189.219C133.227 190.403 131.681 191.107 130.043 191.184C128.405 191.261 126.8 190.707 125.56 189.635C124.32 188.563 123.54 187.056 123.381 185.425C123.222 183.795 123.697 182.166 124.707 180.875C125.718 179.585 127.186 178.731 128.808 178.492C130.43 178.253 132.083 178.646 133.423 179.59C134.763 180.534 135.689 181.956 136.009 183.563C136.091 183.978 136.132 184.4 136.131 184.822V184.822Z" fill="#3F3D56"/>
<path d="M349.741 264.698C353.286 264.698 356.161 261.827 356.161 258.285C356.161 254.743 353.286 251.872 349.741 251.872C346.195 251.872 343.321 254.743 343.321 258.285C343.321 261.827 346.195 264.698 349.741 264.698Z" fill="#3F3D56"/>
<path d="M248.772 206.395C253.929 206.395 258.11 202.218 258.11 197.066C258.11 191.914 253.929 187.738 248.772 187.738C243.615 187.738 239.434 191.914 239.434 197.066C239.434 202.218 243.615 206.395 248.772 206.395Z" fill="#3F3D56"/>
<path d="M501.305 332.821L0.694915 333C0.603657 333 0.51329 332.982 0.428979 332.947C0.344667 332.912 0.268065 332.861 0.203536 332.797C0.139006 332.732 0.0878128 332.656 0.0528898 332.571C0.0179669 332.487 0 332.397 0 332.306C0 332.215 0.0179669 332.124 0.0528898 332.04C0.0878128 331.956 0.139006 331.879 0.203536 331.815C0.268065 331.75 0.344667 331.699 0.428979 331.664C0.51329 331.63 0.603657 331.612 0.694915 331.612L501.305 331.432C501.489 331.433 501.665 331.506 501.795 331.636C501.925 331.767 501.998 331.943 501.998 332.127C501.998 332.31 501.925 332.487 501.795 332.617C501.665 332.747 501.489 332.82 501.305 332.821V332.821Z" fill="#CACACA"/>
</g>
<defs>
<clipPath id="clip0_14_2">
<rect width="502" height="333" fill="white"/>
</clipPath>
</defs>
</svg>
