<svg width="51" height="51" viewBox="0 0 51 51" fill="none" xmlns="http://www.w3.org/2000/svg">
<path d="M6.84043 9.09712C6.69225 8.94894 6.57471 8.77303 6.49452 8.57942C6.41432 8.38581 6.37305 8.17831 6.37305 7.96875C6.37305 7.75919 6.41432 7.55168 6.49452 7.35808C6.57471 7.16447 6.69225 6.98855 6.84043 6.84037C6.98862 6.69219 7.16453 6.57465 7.35814 6.49446C7.55174 6.41426 7.75925 6.37299 7.96881 6.37299C8.17837 6.37299 8.38588 6.41426 8.57948 6.49446C8.77309 6.57465 8.949 6.69219 9.09719 6.84037L25.5001 23.2464L41.9029 6.84037C42.0511 6.69219 42.227 6.57465 42.4206 6.49446C42.6142 6.41426 42.8218 6.37299 43.0313 6.37299C43.2409 6.37299 43.4484 6.41426 43.642 6.49446C43.8356 6.57465 44.0115 6.69219 44.1597 6.84037C44.3079 6.98855 44.4254 7.16447 44.5056 7.35808C44.5858 7.55168 44.6271 7.75919 44.6271 7.96875C44.6271 8.17831 44.5858 8.38581 44.5056 8.57942C44.4254 8.77303 44.3079 8.94894 44.1597 9.09712L27.7536 25.5L44.1597 41.9029C44.3079 42.0511 44.4254 42.227 44.5056 42.4206C44.5858 42.6142 44.6271 42.8217 44.6271 43.0312C44.6271 43.2408 44.5858 43.4483 44.5056 43.6419C44.4254 43.8355 44.3079 44.0114 44.1597 44.1596C44.0115 44.3078 43.8356 44.4253 43.642 44.5055C43.4484 44.5857 43.2409 44.627 43.0313 44.627C42.8218 44.627 42.6142 44.5857 42.4206 44.5055C42.227 44.4253 42.0511 44.3078 41.9029 44.1596L25.5001 27.7536L9.09719 44.1596C8.949 44.3078 8.77309 44.4253 8.57948 44.5055C8.38588 44.5857 8.17837 44.627 7.96881 44.627C7.75925 44.627 7.55174 44.5857 7.35814 44.5055C7.16453 44.4253 6.98862 44.3078 6.84043 44.1596C6.69225 44.0114 6.57471 43.8355 6.49452 43.6419C6.41432 43.4483 6.37305 43.2408 6.37305 43.0312C6.37305 42.8217 6.41432 42.6142 6.49452 42.4206C6.57471 42.227 6.69225 42.0511 6.84043 41.9029L23.2465 25.5L6.84043 9.09712Z" fill="white"/>
</svg>
