<svg width="365" height="385" viewBox="0 0 365 385" fill="none" xmlns="http://www.w3.org/2000/svg">
<g clip-path="url(#clip0_41_18)">
<path d="M267.992 370.699L245.281 356.205L274.863 364.674C293.447 346.922 307.061 322.328 307.061 322.328C307.061 322.328 257.286 291.94 226.626 300.049C195.965 308.158 190.082 329.214 196.029 351.695C201.977 374.175 217.504 389.568 248.165 381.459C254.989 379.654 261.692 375.72 267.992 370.699Z" fill="#F2F2F2"/>
<path d="M243.021 351.53L241.51 351.93C223.919 356.486 209.429 357.149 198.24 353.89C198.076 353.845 197.918 353.791 197.754 353.746L197.978 352.99L198.203 352.267C210.331 355.958 225.666 354.344 241.01 350.373C241.506 350.25 242.009 350.125 242.509 349.985C248.989 348.247 255.446 346.115 261.652 343.793C262.134 343.618 262.621 343.433 263.109 343.248C271.285 340.141 278.984 336.744 285.62 333.596C286.09 333.376 286.558 333.148 287.018 332.922C298.229 327.548 306.173 322.99 307.927 321.965C308.143 321.844 308.26 321.773 308.288 321.758L308.678 322.415L308.688 322.42L309.08 323.085C309.052 323.101 308.659 323.341 307.921 323.76C305.17 325.344 297.678 329.551 287.609 334.399C287.154 334.615 286.686 334.843 286.216 335.063C280.833 337.624 274.779 340.337 268.353 342.917C266.74 343.568 265.143 344.191 263.563 344.785C263.078 344.977 262.591 345.162 262.109 345.337C255.4 347.848 249.038 349.912 243.021 351.53Z" fill="white"/>
<path d="M287.609 334.399C287.409 333.916 287.207 333.425 287.018 332.922C286.503 331.559 286.058 330.17 285.685 328.761C284.088 322.758 283.859 316.473 285.014 310.369C284.534 310.16 284.055 309.951 283.566 309.736C282.291 316.172 282.504 322.815 284.189 329.157C284.587 330.661 285.065 332.143 285.62 333.597C285.807 334.091 286.009 334.582 286.216 335.064C287.904 339.044 290.187 342.745 292.986 346.039C293.313 345.609 293.634 345.188 293.949 344.776C291.336 341.648 289.2 338.151 287.609 334.399V334.399Z" fill="white"/>
<path d="M263.564 344.785C263.397 344.276 263.246 343.764 263.109 343.248C263.06 343.093 263.016 342.928 262.975 342.771C261.253 336.264 261.131 329.437 262.618 322.873C264.105 316.308 267.158 310.201 271.516 305.071C270.996 304.888 270.475 304.706 269.949 304.533C265.569 309.837 262.517 316.108 261.043 322.826C259.57 329.545 259.72 336.518 261.479 343.167C261.534 343.377 261.589 343.586 261.652 343.793C261.798 344.315 261.95 344.827 262.109 345.337C264.631 353.216 269.37 360.202 275.758 365.459C276.136 365.103 276.514 364.747 276.89 364.383C270.635 359.286 266.004 352.475 263.564 344.785V344.785Z" fill="white"/>
<path d="M243.022 351.53C242.838 351.019 242.67 350.503 242.509 349.985C242.338 349.43 242.175 348.873 242.026 348.312C239.723 339.566 240.315 330.308 243.714 321.927C247.113 313.545 253.136 306.489 260.881 301.817C260.186 301.64 259.498 301.462 258.807 301.301C251.164 306.279 245.284 313.539 242.003 322.05C238.722 330.56 238.206 339.888 240.53 348.708C240.678 349.269 240.834 349.828 241.011 350.373C241.166 350.901 241.335 351.416 241.511 351.93C245.136 362.288 252.564 370.881 262.288 375.969C262.8 375.666 263.299 375.342 263.805 375.016C254.086 370.187 246.632 361.763 243.022 351.53Z" fill="white"/>
<path d="M212.972 382.202L100.662 337.002C93.9321 334.285 88.5549 329.009 85.7102 322.333C82.8656 315.656 82.7858 308.124 85.4885 301.389L199.917 17.152C202.635 10.423 207.911 5.04653 214.589 2.20229C221.266 -0.641951 228.799 -0.721729 235.536 1.98046L347.845 47.1801C354.576 49.8975 359.953 55.1732 362.797 61.8497C365.642 68.5261 365.722 76.0582 363.019 82.7934L248.591 367.03C245.873 373.759 240.597 379.136 233.919 381.98C227.241 384.824 219.708 384.904 212.972 382.202Z" fill="#3F3D56"/>
<path d="M343.415 54.5571L330.914 49.5259C329.797 49.078 328.549 49.0911 327.443 49.5624C326.336 50.0337 325.462 50.9247 325.012 52.0398C324.091 54.3197 322.304 56.1414 320.041 57.105C317.779 58.0686 315.227 58.0953 312.945 57.1795L251.804 32.5729C249.523 31.6526 247.701 29.8654 246.738 27.6035C245.774 25.3416 245.747 22.7898 246.663 20.5081C247.111 19.3921 247.098 18.144 246.627 17.0377C246.155 15.9314 245.264 15.0572 244.149 14.6071L233.126 10.1708C228.017 8.12217 222.304 8.18308 217.239 10.3402C212.175 12.4973 208.173 16.5745 206.111 21.6777L92.4959 303.894C90.4469 309.002 90.5078 314.715 92.6652 319.778C94.8226 324.842 98.9005 328.843 104.004 330.905L214.293 375.291C219.402 377.34 225.116 377.279 230.18 375.122C235.244 372.965 239.246 368.888 241.308 363.784L354.923 81.568C356.972 76.4596 356.911 70.7473 354.754 65.6837C352.597 60.6202 348.519 56.6188 343.415 54.5571V54.5571Z" fill="white"/>
<path d="M300.649 43.9296L266.156 30.0477C265.83 29.9162 265.568 29.6603 265.43 29.3364C265.292 29.0124 265.289 28.6469 265.42 28.3202C265.552 27.9936 265.808 27.7325 266.132 27.5945C266.456 27.4565 266.821 27.4528 267.148 27.5843L301.641 41.4662C301.803 41.5313 301.95 41.6276 302.075 41.7497C302.199 41.8717 302.298 42.0171 302.367 42.1775C302.435 42.3379 302.471 42.5102 302.473 42.6846C302.475 42.8589 302.442 43.0319 302.377 43.1937C302.312 43.3554 302.216 43.5027 302.093 43.6273C301.971 43.7518 301.826 43.851 301.666 43.9194C301.505 43.9877 301.333 44.0238 301.158 44.0255C300.984 44.0273 300.811 43.9947 300.649 43.9296V43.9296Z" fill="white"/>
<path d="M306.565 45.9416C307.152 45.9416 307.627 45.4661 307.627 44.8794C307.627 44.2927 307.152 43.8171 306.565 43.8171C305.979 43.8171 305.503 44.2927 305.503 44.8794C305.503 45.4661 305.979 45.9416 306.565 45.9416Z" fill="white"/>
<path d="M329.104 169.882C328.517 169.645 328.047 169.184 327.799 168.601C327.551 168.018 327.544 167.361 327.779 166.773L345.234 123.417C345.471 122.829 345.932 122.36 346.515 122.112C347.097 121.864 347.755 121.858 348.343 122.095C348.93 122.331 349.4 122.791 349.649 123.374C349.897 123.956 349.904 124.614 349.669 125.202L332.214 168.557C331.977 169.145 331.516 169.614 330.933 169.863C330.35 170.111 329.693 170.118 329.104 169.882V169.882Z" fill="#3F3D56"/>
<path d="M177.909 71.82C177.321 71.5827 176.852 71.1221 176.604 70.5392C176.355 69.9562 176.348 69.2986 176.584 68.7105L180.551 58.8569C180.668 58.5652 180.841 58.2995 181.061 58.0748C181.28 57.8501 181.542 57.671 181.831 57.5476C182.12 57.4242 182.431 57.359 182.745 57.3557C183.059 57.3524 183.371 57.4111 183.663 57.5284C183.954 57.6458 184.22 57.8194 184.444 58.0394C184.668 58.2595 184.847 58.5216 184.97 58.8107C185.093 59.0999 185.157 59.4105 185.16 59.7246C185.163 60.0388 185.104 60.3505 184.986 60.6417L181.019 70.4953C180.782 71.0829 180.321 71.5523 179.738 71.8006C179.155 72.0489 178.497 72.0559 177.909 71.82V71.82Z" fill="#3F3D56"/>
<path d="M170.57 90.0491C169.983 89.8118 169.513 89.3512 169.265 88.7683C169.016 88.1853 169.009 87.5277 169.245 86.9396L173.212 77.086C173.329 76.7943 173.502 76.5285 173.722 76.3037C173.942 76.079 174.203 75.8998 174.492 75.7764C174.781 75.6529 175.092 75.5877 175.406 75.5844C175.72 75.5811 176.032 75.6398 176.324 75.7571C176.615 75.8745 176.881 76.0481 177.105 76.2682C177.33 76.4883 177.508 76.7504 177.631 77.0396C177.754 77.3288 177.819 77.6394 177.822 77.9537C177.824 78.2679 177.765 78.5796 177.647 78.8708L173.68 88.7244C173.443 89.312 172.982 89.7814 172.399 90.0297C171.816 90.2781 171.158 90.285 170.57 90.0491V90.0491Z" fill="#3F3D56"/>
<path d="M275.952 131.897L228.241 112.695C227.264 112.299 226.483 111.532 226.069 110.562C225.656 109.591 225.643 108.497 226.035 107.517L237.485 79.0745C237.882 78.0971 238.649 77.3164 239.619 76.9029C240.589 76.4895 241.684 76.4769 242.663 76.8681L290.374 96.0694C291.351 96.4655 292.132 97.2325 292.546 98.2026C292.959 99.1727 292.972 100.267 292.581 101.246L281.13 129.69C280.734 130.667 279.967 131.448 278.996 131.861C278.026 132.275 276.932 132.287 275.952 131.897ZM241.859 78.8691C241.41 78.69 240.908 78.6959 240.464 78.8854C240.019 79.075 239.667 79.4328 239.486 79.8807L228.036 108.322C227.857 108.771 227.863 109.272 228.052 109.717C228.242 110.162 228.6 110.513 229.048 110.695L276.755 129.895C277.204 130.074 277.706 130.068 278.151 129.879C278.596 129.689 278.948 129.331 279.13 128.883L290.579 100.442C290.759 99.9935 290.753 99.4919 290.563 99.0473C290.373 98.6027 290.015 98.2511 289.567 98.0695L241.859 78.8691Z" fill="#3F3D56"/>
<path d="M276.235 113.797L276.232 113.796L239.403 98.9742C238.889 98.7661 238.452 98.4049 238.151 97.9398C237.85 97.4747 237.7 96.9282 237.721 96.3747L238.416 79.1278C238.433 78.6981 238.554 78.2787 238.767 77.9051C238.98 77.5314 239.279 77.2144 239.641 76.9805C240.002 76.7467 240.414 76.603 240.842 76.5614C241.27 76.5197 241.702 76.5815 242.101 76.7414L290.842 96.2611C291.5 96.5252 292.028 97.0391 292.309 97.6907C292.591 98.3422 292.603 99.0786 292.343 99.7391L292.503 99.899L290.974 101.421L290.974 101.421L279.133 113.208C278.761 113.58 278.288 113.834 277.773 113.938C277.257 114.043 276.722 113.994 276.235 113.797V113.797Z" fill="#3F3D56"/>
<path d="M248.579 115.052L232.199 108.46C231.796 108.297 231.473 107.981 231.303 107.581C231.133 107.181 231.128 106.729 231.291 106.326C231.453 105.923 231.769 105.6 232.169 105.43C232.569 105.259 233.02 105.254 233.424 105.417L249.804 112.009C250.207 112.171 250.53 112.487 250.7 112.887C250.87 113.288 250.875 113.739 250.712 114.142C250.55 114.546 250.234 114.868 249.834 115.039C249.434 115.209 248.982 115.214 248.579 115.052V115.052Z" fill="#3F3D56"/>
<path d="M258.721 109.595C260.935 109.595 262.73 107.8 262.73 105.586C262.73 103.372 260.935 101.577 258.721 101.577C256.506 101.577 254.711 103.372 254.711 105.586C254.711 107.8 256.506 109.595 258.721 109.595Z" fill="white"/>
<path d="M204.809 308.615L157.098 289.414C156.12 289.018 155.339 288.25 154.926 287.28C154.512 286.31 154.5 285.215 154.891 284.236L166.342 255.793C166.738 254.816 167.505 254.035 168.475 253.622C169.446 253.208 170.54 253.196 171.52 253.587L219.23 272.788C220.208 273.184 220.989 273.951 221.402 274.921C221.816 275.891 221.828 276.986 221.437 277.965L209.987 306.408C209.59 307.386 208.823 308.166 207.853 308.58C206.883 308.993 205.788 309.006 204.809 308.615V308.615ZM170.716 255.588C170.267 255.409 169.765 255.415 169.32 255.604C168.876 255.794 168.524 256.151 168.342 256.599L156.892 285.04C156.713 285.489 156.719 285.991 156.909 286.436C157.098 286.88 157.456 287.232 157.904 287.414L205.611 306.614C206.061 306.793 206.563 306.787 207.008 306.598C207.453 306.408 207.804 306.05 207.986 305.602L219.436 277.161C219.615 276.712 219.609 276.211 219.419 275.766C219.23 275.321 218.872 274.97 218.424 274.788L170.716 255.588Z" fill="#3F3D56"/>
<path d="M205.091 290.516L205.089 290.515L168.259 275.693C167.746 275.485 167.309 275.124 167.008 274.659C166.707 274.193 166.556 273.647 166.577 273.093L167.272 255.847C167.29 255.417 167.41 254.997 167.623 254.624C167.836 254.25 168.136 253.933 168.497 253.699C168.858 253.465 169.27 253.322 169.698 253.28C170.126 253.238 170.558 253.3 170.958 253.46L219.698 272.98C220.357 273.244 220.884 273.758 221.166 274.409C221.447 275.061 221.459 275.797 221.199 276.458L221.359 276.618L219.831 278.14L219.831 278.139L207.99 289.927C207.618 290.298 207.144 290.552 206.629 290.657C206.114 290.762 205.579 290.713 205.091 290.516Z" fill="#3F3D56"/>
<path d="M177.435 291.77L161.055 285.178C160.652 285.016 160.33 284.7 160.159 284.299C159.989 283.899 159.985 283.448 160.147 283.045C160.309 282.641 160.625 282.319 161.025 282.148C161.425 281.978 161.877 281.973 162.28 282.135L178.66 288.727C178.86 288.808 179.042 288.927 179.196 289.078C179.35 289.228 179.473 289.408 179.557 289.606C179.641 289.804 179.686 290.017 179.688 290.233C179.69 290.448 179.65 290.662 179.57 290.861C179.489 291.061 179.37 291.243 179.219 291.397C179.069 291.551 178.889 291.673 178.691 291.758C178.493 291.842 178.28 291.887 178.064 291.889C177.849 291.891 177.635 291.851 177.435 291.77V291.77Z" fill="#3F3D56"/>
<path d="M187.577 286.314C189.792 286.314 191.587 284.519 191.587 282.305C191.587 280.091 189.792 278.296 187.577 278.296C185.363 278.296 183.567 280.091 183.567 282.305C183.567 284.519 185.363 286.314 187.577 286.314Z" fill="white"/>
<path d="M223.71 236.581C247.931 236.581 267.567 216.949 267.567 192.731C267.567 168.513 247.931 148.881 223.71 148.881C199.488 148.881 179.853 168.513 179.853 192.731C179.853 216.949 199.488 236.581 223.71 236.581Z" fill="#0DCA7A"/>
<path d="M240.354 220.245L192.644 201.044C191.666 200.648 190.885 199.881 190.472 198.91C190.058 197.94 190.046 196.846 190.437 195.866L201.888 167.423C202.284 166.446 203.051 165.665 204.021 165.252C204.992 164.838 206.086 164.826 207.066 165.217L254.776 184.418C255.754 184.814 256.535 185.581 256.948 186.551C257.362 187.521 257.374 188.616 256.983 189.595L245.533 218.039C245.136 219.016 244.369 219.796 243.399 220.21C242.429 220.623 241.334 220.636 240.354 220.245V220.245ZM206.261 167.218C205.812 167.039 205.311 167.045 204.866 167.234C204.421 167.424 204.07 167.782 203.888 168.229L192.438 196.67C192.259 197.119 192.265 197.621 192.455 198.066C192.644 198.51 193.002 198.862 193.45 199.044L241.157 218.244C241.606 218.423 242.108 218.417 242.553 218.228C242.998 218.038 243.35 217.68 243.532 217.232L254.982 188.791C255.161 188.342 255.155 187.841 254.965 187.396C254.776 186.951 254.418 186.6 253.97 186.418L206.261 167.218Z" fill="#3F3D56"/>
<path d="M240.637 202.146L240.634 202.145L203.805 187.323C203.292 187.115 202.855 186.754 202.554 186.289C202.253 185.824 202.102 185.277 202.123 184.723L202.818 167.477C202.836 167.047 202.956 166.628 203.169 166.254C203.382 165.88 203.682 165.563 204.043 165.329C204.404 165.096 204.816 164.952 205.244 164.91C205.672 164.869 206.104 164.93 206.504 165.09L255.244 184.61C255.903 184.874 256.43 185.388 256.712 186.039C256.993 186.691 257.005 187.427 256.745 188.088L256.905 188.248L255.377 189.77L255.376 189.769L243.536 201.557C243.163 201.929 242.69 202.183 242.175 202.287C241.66 202.392 241.125 202.343 240.637 202.146V202.146Z" fill="#3F3D56"/>
<path d="M212.981 203.4L196.601 196.808C196.198 196.646 195.876 196.33 195.705 195.93C195.535 195.529 195.53 195.078 195.693 194.675C195.855 194.271 196.171 193.949 196.571 193.778C196.971 193.608 197.423 193.603 197.826 193.765L214.206 200.357C214.61 200.52 214.932 200.836 215.102 201.236C215.273 201.636 215.277 202.088 215.115 202.491C214.952 202.894 214.636 203.217 214.236 203.387C213.836 203.558 213.385 203.563 212.981 203.4V203.4Z" fill="#3F3D56"/>
<path d="M105.194 224.829C105.198 223.99 105.018 223.161 104.667 222.399C104.316 221.637 103.802 220.961 103.162 220.419C102.521 219.878 101.77 219.483 100.96 219.263C100.15 219.043 99.3025 219.003 98.4757 219.146L88.6007 201.304L83.6846 210.692L93.8158 226.195C94.1483 227.568 94.9729 228.771 96.1333 229.576C97.2936 230.382 98.7092 230.734 100.112 230.565C101.514 230.397 102.806 229.72 103.743 228.663C104.68 227.605 105.196 226.242 105.194 224.829H105.194Z" fill="#9E616A"/>
<path d="M98.8138 152.763L88.659 152.051C88.659 152.051 87.4081 151.881 83.9681 157.335C80.5281 162.789 68.7363 190.447 68.7363 190.447L89.395 220.428L96.1048 213.749L84.1091 189.625L95.607 173.48L98.8138 152.763Z" fill="#CACACA"/>
<path d="M210.764 185.175C210.084 185.434 209.355 185.541 208.628 185.489C207.902 185.436 207.196 185.224 206.56 184.869C205.924 184.514 205.373 184.024 204.947 183.433C204.521 182.843 204.23 182.166 204.094 181.45L186.577 178.872L192.707 172.011L208.402 175.512C209.619 175.363 210.849 175.666 211.858 176.363C212.866 177.06 213.584 178.103 213.876 179.294C214.167 180.485 214.011 181.742 213.438 182.825C212.864 183.909 211.913 184.745 210.764 185.175V185.175Z" fill="#9E616A"/>
<path d="M143.431 377.024H150.916L154.477 348.156L143.43 348.156L143.431 377.024Z" fill="#9E616A"/>
<path d="M141.521 374.58L143.628 374.58L151.854 371.236L156.263 374.58H156.264C158.755 374.58 161.145 375.57 162.906 377.331C164.668 379.093 165.658 381.482 165.658 383.973V384.278L141.522 384.279L141.521 374.58Z" fill="#2F2E41"/>
<path d="M98.2763 377.024H105.762L109.323 348.156L98.2754 348.156L98.2763 377.024Z" fill="#9E616A"/>
<path d="M96.3672 374.58L98.4741 374.58L106.7 371.236L111.109 374.58H111.109C113.601 374.58 115.99 375.57 117.752 377.331C119.514 379.093 120.504 381.482 120.504 383.973V384.278L96.3676 384.279L96.3672 374.58Z" fill="#2F2E41"/>
<path d="M101.164 234.868L96.2168 264.686L97.8804 360.537H110.057L128.765 259.148L142.222 358.87L154.466 358.34L160.576 257.682L155.085 231.989L101.164 234.868Z" fill="#2F2E41"/>
<path d="M145.905 146.193L132.872 144.274L130.101 137.08L111.74 137.055L107.614 146.447L88.8516 152.111L104.396 205.502C104.396 205.502 95.8295 225.344 97.9365 225.429C100.043 225.514 101.081 228.526 99.6119 230.109C98.1422 231.692 95.1935 230.685 96.6679 233.089C97.5125 234.39 98.0782 235.852 98.3294 237.383C98.3294 237.383 160.499 250.654 157.055 233.542C156.627 231.414 151.432 201.943 151.432 201.943C151.432 201.943 155.956 196.938 154.022 194.949C152.089 192.96 153.11 171.956 153.11 171.956L145.905 146.193Z" fill="#CACACA"/>
<path d="M143.771 148.527L145.905 146.194L174.884 163.183L199.405 172.961L199.88 181.515L168.035 177.713L145.496 166.694L143.771 148.527Z" fill="#CACACA"/>
<path d="M135.714 116.45C135.714 118.464 135.317 120.458 134.546 122.319C133.775 124.18 132.645 125.871 131.221 127.295C129.796 128.72 128.105 129.849 126.244 130.62C124.383 131.391 122.388 131.788 120.373 131.788C119.165 131.786 117.961 131.645 116.785 131.368C113.984 130.696 111.428 129.248 109.41 127.191C107.393 125.134 105.996 122.55 105.378 119.736C104.761 116.922 104.948 113.991 105.919 111.279C106.889 108.566 108.604 106.182 110.867 104.398C113.13 102.615 115.85 101.504 118.714 101.194C121.579 100.883 124.473 101.386 127.066 102.643C129.658 103.901 131.844 105.863 133.374 108.304C134.903 110.746 135.714 113.569 135.714 116.45V116.45Z" fill="#9E616A"/>
<path d="M124.483 128.888L113.465 131.012C112.438 131.29 111.363 131.334 110.317 131.143C108.678 130.711 107.579 129.199 106.741 127.726C102.851 120.829 101.626 112.745 103.298 105.006C103.674 103.297 104.478 101.34 106.193 100.992C106.691 100.891 107.255 100.931 107.649 100.61C108.23 100.138 108.039 99.1363 107.468 98.6515C106.848 98.2243 106.117 97.9868 105.365 97.968C105.851 97.3965 106.453 96.9344 107.131 96.6121C107.808 96.2898 108.547 96.1146 109.297 96.098L106.35 94.4606C107.769 93.4758 109.677 93.5658 111.351 93.9913C113.026 94.4168 114.637 95.1373 116.358 95.2986C118.517 95.5011 120.649 94.8071 122.801 94.5389C126.013 94.1906 129.258 94.7706 132.15 96.21C135.043 97.6494 137.462 99.8878 139.12 102.66C139.705 103.585 140.075 104.628 140.204 105.714C140.263 106.258 140.195 106.807 140.005 107.319C139.814 107.831 139.507 108.292 139.108 108.665C137.901 109.679 136.001 109.53 134.832 110.588C133.931 111.404 133.707 112.72 133.656 113.934C133.605 115.148 133.663 116.416 133.142 117.514C132.622 118.612 131.264 119.438 130.179 118.892C130.131 117.388 128.397 116.324 126.925 116.634C125.453 116.945 124.365 118.284 123.942 119.727C123.518 121.171 123.644 122.713 123.828 124.206C124.013 125.7 124.252 127.21 124.046 128.7" fill="#2F2E41"/>
<path d="M221.41 198.389C223.625 198.389 225.42 196.594 225.42 194.38C225.42 192.166 223.625 190.371 221.41 190.371C219.196 190.371 217.4 192.166 217.4 194.38C217.4 196.594 219.196 198.389 221.41 198.389Z" fill="#0DCA7A"/>
<path d="M308.227 385H0.566252C0.416441 385 0.27291 384.94 0.16713 384.834C0.0613504 384.728 0.00195312 384.584 0.00195312 384.434C0.00195312 384.284 0.0613504 384.141 0.16713 384.035C0.27291 383.928 0.416441 383.869 0.566252 383.868H308.227C308.377 383.868 308.521 383.928 308.627 384.034C308.733 384.14 308.793 384.284 308.793 384.434C308.793 384.584 308.733 384.728 308.627 384.834C308.521 384.94 308.377 385 308.227 385Z" fill="#CACACA"/>
</g>
<defs>
<clipPath id="clip0_41_18">
<rect width="365" height="385" fill="white"/>
</clipPath>
</defs>
</svg>
