<svg width="128" height="128" viewBox="0 0 128 128" fill="none" xmlns="http://www.w3.org/2000/svg">
<path d="M60.0974 25.0277C54.0617 28.4618 48.8064 31.6878 48.3381 32.1561C47.8698 32.6764 42.5104 42.9789 36.3706 55.1025C28.4617 70.9203 25.4438 77.3203 25.808 77.8927C26.0682 78.309 27.473 79.2976 28.8779 80.1301L31.4795 81.587L43.447 74.6147C53.8535 68.5268 55.4665 67.7464 55.8308 68.5268C56.0389 69.0472 59.473 77.2683 63.4795 86.8423C67.486 96.4163 70.8161 104.273 70.8682 104.325C71.9608 105.262 78.7251 109.268 79.1934 109.268C79.8698 109.268 102.348 96.3642 102.764 95.7919C102.868 95.5317 101.307 90.2244 99.1739 83.9805L95.3755 72.5854L92.3056 72.2212C84.1885 71.1805 78.9852 65.613 78.9852 58.0163C78.9852 53.8016 80.4942 50.3675 83.7722 47.2976L86.3218 44.9041L82.7316 33.6651L79.0893 22.4781L75.7072 20.6049C73.834 19.5642 72.0129 18.7317 71.6486 18.7317C71.2844 18.7317 66.0812 21.5415 60.0974 25.0277ZM74.0942 22.0618L76.1234 23.2586L68.6308 27.5773C64.5202 29.9187 60.0454 32.5203 58.6405 33.3529C57.2877 34.1854 55.9348 34.8618 55.6747 34.8618C54.686 34.8618 51.5121 33.0927 51.6682 32.6244C51.8243 32.0521 70.7121 20.9171 71.5446 20.8651C71.8568 20.813 72.9495 21.3854 74.0942 22.0618ZM52.5007 35.7464L54.7381 37.2033L65.9251 71.1805C72.0649 89.9122 76.956 105.314 76.8519 105.47C76.6958 105.574 75.6552 105.054 74.4584 104.325C72.1169 102.764 72.9495 104.481 58.7446 70.4C54.8942 61.1903 51.5121 53.4895 51.1478 53.3854C50.7836 53.2293 46.4649 58.6407 41.1056 65.8212C35.9023 72.8455 31.4795 78.6732 31.2714 78.7773C31.0633 78.9334 30.1267 78.5691 29.1901 77.9968L27.5251 77.0081L38.3478 55.6748C44.2795 43.9675 49.4308 34.3415 49.6909 34.3415C50.0031 34.3415 51.2519 34.9659 52.5007 35.7464Z" fill="black"/>
<path d="M89.2356 49.639C83.7201 52.0325 82.2112 59.2651 86.2697 64.1041C91.525 70.348 101.984 66.2894 101.984 58.0683C101.984 51.5122 95.1673 47.0374 89.2356 49.639ZM96.8323 52.1886C99.1218 53.6976 99.2258 54.8943 97.4047 57.8081C95.7917 60.3057 91.577 62.9594 89.2356 62.9594C86.5299 62.9594 84.9169 57.9642 86.5819 54.6862C88.4551 51.0959 93.3982 49.8992 96.8323 52.1886Z" fill="black"/>
</svg>
