<svg width="540" height="324" viewBox="0 0 540 324" fill="none" xmlns="http://www.w3.org/2000/svg">
<g clip-path="url(#clip0_2_12)">
<path d="M33.9686 67.9127C27.2503 67.9127 20.6828 65.9212 15.0967 62.19C9.51054 58.4588 5.1567 53.1556 2.58569 46.9508C0.0146876 40.7461 -0.658005 33.9186 0.652682 27.3318C1.96337 20.7449 5.19858 14.6944 9.94918 9.94556C14.6998 5.19668 20.7524 1.96266 27.3417 0.652446C33.9309 -0.657766 40.7609 0.0146823 46.9678 2.58476C53.1748 5.15483 58.48 9.5071 62.2125 15.0912C65.945 20.6753 67.9372 27.2404 67.9372 33.9563C67.9271 42.959 64.345 51.59 57.9768 57.9558C51.6087 64.3217 42.9745 67.9025 33.9686 67.9127ZM33.9686 1.41484C27.5302 1.41484 21.2364 3.32336 15.883 6.89906C10.5296 10.4748 6.3572 15.5571 3.89332 21.5032C1.42944 27.4494 0.784777 33.9924 2.04085 40.3048C3.29693 46.6173 6.39732 52.4156 10.95 56.9666C15.5026 61.5176 21.3031 64.6169 27.6178 65.8725C33.9325 67.1281 40.4779 66.4837 46.4262 64.0207C52.3746 61.5577 57.4587 57.3868 61.0357 52.0354C64.6127 46.684 66.5219 40.3924 66.5219 33.9563C66.5121 25.3288 63.0793 17.0574 56.9765 10.9568C50.8737 4.85622 42.5993 1.42461 33.9686 1.41484V1.41484Z" fill="#F2F2F2"/>
<path d="M264.672 48.1048C261.313 48.1048 258.029 47.109 255.236 45.2435C252.443 43.3779 250.266 40.7262 248.981 37.6239C247.695 34.5215 247.359 31.1078 248.014 27.8144C248.67 24.5209 250.287 21.4957 252.663 19.1213C255.038 16.7468 258.064 15.1298 261.359 14.4747C264.653 13.8196 268.068 14.1558 271.172 15.4409C274.275 16.7259 276.928 18.902 278.794 21.6941C280.66 24.4861 281.657 27.7687 281.657 31.1266C281.651 35.628 279.86 39.9435 276.676 43.1264C273.492 46.3093 269.175 48.0997 264.672 48.1048V48.1048ZM264.672 15.5633C261.593 15.5633 258.583 16.4761 256.023 18.1862C253.462 19.8963 251.467 22.327 250.288 25.1708C249.11 28.0146 248.802 31.1439 249.402 34.1629C250.003 37.1819 251.486 39.955 253.663 42.1316C255.841 44.3081 258.615 45.7904 261.635 46.3909C264.655 46.9914 267.785 46.6832 270.63 45.5053C273.475 44.3273 275.907 42.3325 277.617 39.7731C279.328 37.2138 280.241 34.2048 280.241 31.1266C280.237 27.0004 278.595 23.0445 275.676 20.1269C272.757 17.2092 268.8 15.568 264.672 15.5633Z" fill="#F2F2F2"/>
<path d="M384.27 130.873C380.491 130.873 376.797 129.753 373.655 127.654C370.512 125.556 368.063 122.573 366.617 119.082C365.171 115.592 364.793 111.752 365.53 108.047C366.267 104.342 368.087 100.938 370.759 98.2669C373.431 95.5956 376.836 93.7765 380.542 93.0395C384.249 92.3025 388.091 92.6808 391.582 94.1264C395.074 95.5721 398.058 98.0202 400.157 101.161C402.257 104.302 403.378 107.995 403.378 111.773C403.372 116.837 401.357 121.692 397.775 125.273C394.193 128.853 389.336 130.868 384.27 130.873V130.873ZM384.27 94.0873C380.771 94.0873 377.35 95.1246 374.441 97.0679C371.532 99.0112 369.264 101.773 367.925 105.005C366.586 108.237 366.235 111.793 366.918 115.223C367.601 118.654 369.286 121.805 371.76 124.279C374.234 126.752 377.387 128.436 380.819 129.119C384.251 129.801 387.808 129.451 391.041 128.112C394.273 126.774 397.036 124.507 398.981 121.599C400.925 118.69 401.962 115.271 401.962 111.773C401.957 107.084 400.091 102.589 396.774 99.2732C393.458 95.9576 388.961 94.0926 384.27 94.0873V94.0873Z" fill="#F2F2F2"/>
<path d="M539.292 324H380.064C379.877 324 379.697 323.925 379.564 323.793C379.431 323.66 379.357 323.48 379.357 323.293C379.357 323.105 379.431 322.925 379.564 322.792C379.697 322.66 379.877 322.585 380.064 322.585H539.292C539.48 322.585 539.66 322.66 539.793 322.792C539.925 322.925 540 323.105 540 323.293C540 323.48 539.925 323.66 539.793 323.793C539.66 323.925 539.48 324 539.292 324Z" fill="#CCCCCC"/>
<path d="M453.564 108.41C463.164 108.41 470.945 100.631 470.945 91.0354C470.945 81.4394 463.164 73.6603 453.564 73.6603C443.965 73.6603 436.183 81.4394 436.183 91.0354C436.183 100.631 443.965 108.41 453.564 108.41Z" fill="#FFB8B8"/>
<path d="M455.367 297.361L447.152 300.149L432.48 269.801L444.605 265.685L455.367 297.361Z" fill="#FFB8B8"/>
<path d="M440.487 299.796L456.331 294.416L459.719 304.388L433.9 313.154C433.455 311.845 433.273 310.461 433.363 309.08C433.453 307.7 433.814 306.352 434.426 305.111C435.038 303.871 435.888 302.763 436.928 301.851C437.968 300.939 439.177 300.24 440.487 299.796V299.796Z" fill="#2F2E41"/>
<path d="M473.929 314.503L465.264 314.938L459.46 281.735L472.25 281.092L473.929 314.503Z" fill="#FFB8B8"/>
<path d="M458.95 312.774L475.661 311.934L476.19 322.452L448.957 323.821C448.888 322.439 449.091 321.058 449.556 319.755C450.02 318.453 450.737 317.254 451.665 316.228C452.593 315.203 453.714 314.37 454.964 313.777C456.214 313.184 457.568 312.843 458.95 312.774V312.774Z" fill="#2F2E41"/>
<path d="M422.364 204.184C423.141 203.492 423.757 202.639 424.168 201.683C424.579 200.728 424.776 199.694 424.745 198.655C424.713 197.615 424.454 196.595 423.985 195.667C423.517 194.738 422.85 193.924 422.033 193.281L430.294 169.388L417.562 172.641L411.669 194.831C410.679 196.275 410.254 198.033 410.473 199.77C410.693 201.507 411.542 203.103 412.861 204.256C414.179 205.409 415.874 206.038 417.626 206.025C419.377 206.012 421.063 205.356 422.364 204.184Z" fill="#FFB8B8"/>
<path d="M473.119 304.492C473.007 304.492 472.895 304.486 472.784 304.474L461.022 303.229C460.299 303.156 459.623 302.837 459.108 302.325C458.593 301.813 458.27 301.14 458.192 300.418L449.102 219.411L442.525 241.578L454.788 285.144C454.913 285.587 454.94 286.053 454.867 286.508C454.794 286.963 454.624 287.397 454.367 287.78C454.11 288.162 453.773 288.485 453.379 288.724C452.985 288.964 452.544 289.116 452.086 289.168L440.163 290.538C439.404 290.622 438.64 290.432 438.009 290.002C437.378 289.572 436.921 288.93 436.722 288.193L423.694 239.167C423.587 238.764 423.56 238.343 423.616 237.93L429.471 193.929L473.144 197.43L476.302 301.211C476.315 301.637 476.243 302.062 476.089 302.459C475.935 302.856 475.702 303.219 475.405 303.525C475.108 303.831 474.753 304.074 474.36 304.24C473.968 304.406 473.546 304.492 473.119 304.492V304.492Z" fill="#2F2E41"/>
<path d="M458.022 204.954C443.39 204.954 426.825 199.302 425.821 198.955L425.531 198.855L442.038 114.187L442.341 114.2C448.883 114.465 466.735 114.601 466.914 114.603L467.235 114.605L474.115 189.322L475.345 200.251L475.194 200.373C470.985 203.775 464.706 204.954 458.022 204.954Z" fill="#11DA92"/>
<path d="M431.589 197.637L421.264 193.48L426.526 129.851C426.653 128.283 427.13 126.762 427.923 125.403C428.716 124.043 429.805 122.879 431.108 121.996L436.541 118.3C436.387 117.778 436.36 117.226 436.461 116.691C436.561 116.156 436.788 115.652 437.121 115.221C437.455 114.79 437.886 114.445 438.379 114.213C438.871 113.981 439.412 113.869 439.957 113.886L441.513 113.936C441.809 113.737 442.158 113.632 442.515 113.634C442.871 113.637 443.219 113.747 443.512 113.951C443.805 114.154 444.029 114.441 444.156 114.775C444.283 115.108 444.305 115.472 444.222 115.819L443.88 122.56L431.589 197.637Z" fill="#2F2E41"/>
<path d="M426.379 186.23L412.899 185.662L417.265 157.583L420.884 131.162C420.955 130.213 421.24 129.293 421.717 128.469C422.194 127.646 422.851 126.941 423.639 126.407C424.427 125.874 425.325 125.525 426.267 125.387C427.209 125.249 428.169 125.326 429.077 125.612V125.612C430.491 126.055 431.704 126.982 432.503 128.23C433.302 129.478 433.636 130.967 433.447 132.436L429.781 161.064L426.379 186.23Z" fill="#2F2E41"/>
<path d="M447.724 198.61L447.632 198.326C447.57 198.132 441.495 178.652 451.66 155.406L456.758 130.062L461.114 114.148C461.195 113.864 461.342 113.602 461.543 113.385C461.743 113.167 461.991 112.999 462.268 112.894C462.593 112.781 462.945 112.767 463.278 112.853C463.611 112.938 463.912 113.12 464.143 113.375V113.375C467.179 112.484 470.443 112.811 473.243 114.285L479.361 117.507C480.721 118.223 481.805 119.37 482.443 120.768C483.081 122.167 483.237 123.737 482.886 125.234L474.525 160.904L478.589 194.222L447.724 198.61Z" fill="#2F2E41"/>
<path d="M456.627 184.876C457.661 184.989 458.707 184.873 459.692 184.537C460.677 184.202 461.576 183.654 462.326 182.934C463.076 182.213 463.659 181.337 464.034 180.366C464.408 179.396 464.566 178.356 464.495 177.318L483.429 163.297L476.811 160.16L456.393 170.674C454.657 170.908 453.068 171.772 451.927 173.1C450.785 174.428 450.17 176.128 450.199 177.879C450.228 179.629 450.898 181.309 452.083 182.598C453.267 183.888 454.884 184.699 456.627 184.876V184.876Z" fill="#FFB8B8"/>
<path d="M468.498 178.6L462.103 166.666L477.875 156.29L470.178 128.693C469.87 127.588 469.793 126.432 469.952 125.296C470.11 124.16 470.502 123.069 471.102 122.091C471.701 121.113 472.496 120.269 473.437 119.612C474.377 118.955 475.443 118.499 476.568 118.272V118.272C478.556 117.876 480.62 118.214 482.377 119.225C484.134 120.235 485.465 121.848 486.122 123.765L496.507 154.279C496.721 154.908 496.733 155.588 496.541 156.224C496.349 156.86 495.963 157.42 495.437 157.826L468.498 178.6Z" fill="#2F2E41"/>
<path d="M454.794 94.7207C452.71 94.9917 451.139 92.8607 450.41 90.8907C449.681 88.9208 449.125 86.6274 447.314 85.5633C444.839 84.1095 441.672 85.858 438.842 85.3783C435.646 84.8367 433.568 81.4506 433.405 78.214C433.242 74.9775 434.53 71.8646 435.795 68.8806L436.236 72.589C436.177 71.3321 436.442 70.0811 437.005 68.9556C437.567 67.8302 438.41 66.8679 439.451 66.1609L438.882 71.6025C439.003 70.8518 439.271 70.1323 439.671 69.4854C440.071 68.8385 440.595 68.2769 441.213 67.8329C441.83 67.3889 442.529 67.0711 443.27 66.8979C444.011 66.7247 444.778 66.6994 445.529 66.8235L445.439 70.0658C449.131 69.627 452.855 69.1876 456.557 69.5219C460.26 69.8562 463.988 71.0273 466.795 73.4648C470.992 77.1109 472.525 83.1147 472.011 88.6499C471.496 94.185 469.21 99.3848 466.828 104.408C466.229 105.672 465.4 107.098 464.01 107.259C462.761 107.403 461.618 106.36 461.23 105.165C460.931 103.938 460.943 102.657 461.264 101.436C461.615 99.5701 462.058 97.6631 461.728 95.7936C461.397 93.9241 460.052 92.0767 458.167 91.8476C456.282 91.6185 454.352 93.7726 455.259 95.4409L454.794 94.7207Z" fill="#2F2E41"/>
<path d="M227.385 285.5L220.619 282.652L215.977 248.747H154.169L149.138 282.514L143.084 285.539C142.795 285.684 142.563 285.922 142.425 286.215C142.288 286.509 142.254 286.839 142.328 287.154C142.403 287.469 142.581 287.75 142.835 287.951C143.089 288.152 143.403 288.261 143.727 288.261H226.827C227.159 288.261 227.48 288.146 227.737 287.936C227.994 287.726 228.17 287.434 228.236 287.109C228.302 286.784 228.253 286.446 228.098 286.152C227.942 285.859 227.69 285.629 227.385 285.5V285.5Z" fill="#E6E6E6"/>
<path d="M337.223 253.258H33.6014C32.0083 253.254 30.4818 252.619 29.3566 251.492C28.2314 250.364 27.5995 248.837 27.5995 247.245V204.445H343.225V247.245C343.225 248.837 342.593 250.364 341.468 251.492C340.342 252.619 338.816 253.254 337.223 253.258V253.258Z" fill="#CCCCCC"/>
<path d="M343.542 224.673H27.3224V41.5449C27.3246 39.6231 28.0894 37.7806 29.4488 36.4217C30.8083 35.0628 32.6515 34.2984 34.574 34.2962H336.29C338.213 34.2984 340.056 35.0628 341.416 36.4217C342.775 37.7806 343.54 39.6231 343.542 41.5449V224.673Z" fill="#3F3D56"/>
<path d="M324.656 211.382H46.2089C44.7268 211.38 43.3058 210.791 42.2578 209.743C41.2097 208.696 40.6202 207.275 40.6185 205.794V53.1759C40.6202 51.6943 41.2097 50.2738 42.2577 49.2261C43.3058 48.1784 44.7267 47.5891 46.2089 47.5874H324.656C326.138 47.5891 327.559 48.1784 328.607 49.2261C329.655 50.2738 330.244 51.6943 330.246 53.1759V205.794C330.244 207.275 329.655 208.696 328.607 209.743C327.559 210.791 326.138 211.38 324.656 211.382Z" fill="white"/>
<path d="M322.035 288.615H52.4086C52.2209 288.615 52.0409 288.54 51.9082 288.408C51.7755 288.275 51.7009 288.095 51.7009 287.907C51.7009 287.72 51.7755 287.54 51.9082 287.407C52.0409 287.275 52.2209 287.2 52.4086 287.2H322.035C322.222 287.2 322.402 287.275 322.535 287.407C322.668 287.54 322.742 287.72 322.742 287.907C322.742 288.095 322.668 288.275 322.535 288.408C322.402 288.54 322.222 288.615 322.035 288.615Z" fill="#CCCCCC"/>
<path d="M298.497 192.419H72.3678C72.1801 192.419 72.0001 192.345 71.8674 192.212C71.7347 192.079 71.6602 191.899 71.6602 191.712V83.3675C71.6602 83.1799 71.7347 83 71.8674 82.8673C72.0001 82.7346 72.1801 82.6601 72.3678 82.6601C72.5555 82.6601 72.7355 82.7346 72.8682 82.8673C73.0009 83 73.0755 83.1799 73.0755 83.3675V191.004H298.497C298.684 191.004 298.864 191.079 298.997 191.212C299.13 191.344 299.204 191.524 299.204 191.712C299.204 191.899 299.13 192.079 298.997 192.212C298.864 192.345 298.684 192.419 298.497 192.419Z" fill="#3F3D56"/>
<path d="M120.682 184.638H100.114C99.5575 184.637 99.0235 184.416 98.6297 184.022C98.2359 183.628 98.0143 183.094 98.0136 182.538V154.196C98.0143 153.639 98.2359 153.105 98.6297 152.712C99.0235 152.318 99.5575 152.097 100.114 152.096H120.682C121.239 152.097 121.773 152.318 122.166 152.712C122.56 153.105 122.782 153.639 122.782 154.196V182.538C122.782 183.094 122.56 183.628 122.166 184.022C121.773 184.416 121.239 184.637 120.682 184.638V184.638Z" fill="#11DA92"/>
<path d="M158.189 184.638H137.621C137.064 184.637 136.531 184.416 136.137 184.022C135.743 183.628 135.521 183.094 135.521 182.538V127.314C135.521 126.757 135.743 126.223 136.137 125.83C136.531 125.436 137.064 125.215 137.621 125.214H158.189C158.746 125.215 159.28 125.436 159.673 125.83C160.067 126.223 160.289 126.757 160.289 127.314V182.538C160.289 183.094 160.067 183.628 159.673 184.022C159.28 184.416 158.746 184.637 158.189 184.638V184.638Z" fill="#11DA92"/>
<path d="M195.696 184.638H175.128C174.572 184.637 174.038 184.416 173.644 184.022C173.25 183.628 173.028 183.094 173.028 182.538V154.196C173.028 153.639 173.25 153.105 173.644 152.712C174.038 152.318 174.572 152.097 175.128 152.096H195.696C196.253 152.097 196.787 152.318 197.18 152.712C197.574 153.105 197.796 153.639 197.797 154.196V182.538C197.796 183.094 197.574 183.628 197.18 184.022C196.787 184.416 196.253 184.637 195.696 184.638V184.638Z" fill="#11DA92"/>
<path d="M233.203 184.638H212.635C212.091 184.649 211.565 184.445 211.171 184.069C210.777 183.693 210.548 183.177 210.535 182.633V116.607C210.548 116.063 210.777 115.547 211.171 115.171C211.565 114.795 212.091 114.591 212.635 114.603H233.203C233.747 114.591 234.274 114.795 234.668 115.171C235.061 115.547 235.29 116.063 235.304 116.607V182.633C235.29 183.177 235.061 183.693 234.668 184.069C234.274 184.445 233.747 184.649 233.203 184.638V184.638Z" fill="#11DA92"/>
<path d="M270.71 184.638H250.143C249.586 184.637 249.052 184.416 248.658 184.022C248.264 183.628 248.042 183.094 248.042 182.538V97.602C248.042 97.0453 248.264 96.5115 248.658 96.1179C249.052 95.7242 249.586 95.5028 250.143 95.5022H270.71C271.267 95.5028 271.801 95.7242 272.195 96.1179C272.588 96.5115 272.81 97.0453 272.811 97.602V182.538C272.81 183.094 272.588 183.628 272.195 184.022C271.801 184.416 271.267 184.637 270.71 184.638V184.638Z" fill="#11DA92"/>
<path d="M110.398 143.607C112.743 143.607 114.644 141.707 114.644 139.362C114.644 137.018 112.743 135.118 110.398 135.118C108.053 135.118 106.152 137.018 106.152 139.362C106.152 141.707 108.053 143.607 110.398 143.607Z" fill="#3F3D56"/>
<path d="M147.905 116.017C150.25 116.017 152.151 114.117 152.151 111.773C152.151 109.429 150.25 107.528 147.905 107.528C145.56 107.528 143.659 109.429 143.659 111.773C143.659 114.117 145.56 116.017 147.905 116.017Z" fill="#3F3D56"/>
<path d="M185.412 143.607C187.757 143.607 189.658 141.707 189.658 139.362C189.658 137.018 187.757 135.118 185.412 135.118C183.067 135.118 181.166 137.018 181.166 139.362C181.166 141.707 183.067 143.607 185.412 143.607Z" fill="#3F3D56"/>
<path d="M222.919 102.576C225.264 102.576 227.165 100.676 227.165 98.3319C227.165 95.9877 225.264 94.0873 222.919 94.0873C220.574 94.0873 218.673 95.9877 218.673 98.3319C218.673 100.676 220.574 102.576 222.919 102.576Z" fill="#3F3D56"/>
<path d="M260.426 87.0131C262.771 87.0131 264.672 85.1128 264.672 82.7686C264.672 80.4244 262.771 78.524 260.426 78.524C258.081 78.524 256.18 80.4244 256.18 82.7686C256.18 85.1128 258.081 87.0131 260.426 87.0131Z" fill="#3F3D56"/>
<path d="M185.501 140.313L147.905 112.163L110.823 139.928L109.973 138.796L147.905 110.396L185.323 138.412L222.505 97.7362L222.654 97.6754L260.162 82.5691L260.691 83.8813L223.333 98.9275L185.501 140.313Z" fill="#3F3D56"/>
</g>
<defs>
<clipPath id="clip0_2_12">
<rect width="540" height="324" fill="white"/>
</clipPath>
</defs>
</svg>
