<svg width="128" height="128" viewBox="0 0 128 128" fill="none" xmlns="http://www.w3.org/2000/svg">
<g clip-path="url(#clip0_34_53)">
<path d="M127.156 97.2465L74.0004 4.02575C72.6548 1.6885 69.8658 0.148589 66.7362 0.0148459C63.5993 -0.158718 60.6059 1.12278 58.9697 3.33971L1.31615 80.453C-0.473677 82.8301 -0.43602 85.8479 1.41275 88.194L29.6001 124.241C31.7901 127.02 35.933 128.278 39.7815 127.333L121.581 107.352C124.073 106.75 126.126 105.286 127.21 103.338C128.28 101.399 128.261 99.1698 127.16 97.2433L127.156 97.2465ZM115.255 101.245L45.844 118.194C43.7266 118.714 41.6941 117.199 42.1346 115.434L66.9333 17.3763C67.3969 15.5415 70.4649 15.2512 71.4347 16.9487L117.342 97.4539C117.753 98.1799 117.758 99.0181 117.356 99.7474C116.953 100.477 116.184 101.024 115.252 101.245H115.255Z" fill="black"/>
</g>
<defs>
<clipPath id="clip0_34_53">
<rect width="128" height="128" fill="white"/>
</clipPath>
</defs>
</svg>
