<svg width="52" height="52" viewBox="0 0 52 52" fill="none" xmlns="http://www.w3.org/2000/svg">
<g clip-path="url(#clip0_58_58)">
<path d="M47.0456 22.7067L42.2067 21.2622C41.8721 20.0941 41.4121 18.9657 40.8345 17.8967L43.2034 13.4622C43.2923 13.2948 43.3248 13.1032 43.2962 12.9159C43.2676 12.7285 43.1793 12.5554 43.0445 12.4222L39.5923 8.95554C39.4591 8.82073 39.2859 8.73246 39.0986 8.70384C38.9112 8.67522 38.7196 8.70777 38.5523 8.79665L34.1467 11.1511C33.0672 10.5454 31.9239 10.061 30.7378 9.70665L29.2934 4.92554C29.2323 4.74934 29.1168 4.59707 28.9637 4.49065C28.8106 4.38423 28.6276 4.32914 28.4412 4.33332H23.5589C23.3714 4.33419 23.189 4.3949 23.0383 4.50662C22.8876 4.61833 22.7765 4.77521 22.7211 4.95443L21.2767 9.7211C20.0807 10.0735 18.9277 10.558 17.8389 11.1655L13.5056 8.82554C13.3382 8.73666 13.1466 8.70411 12.9593 8.73273C12.7719 8.76135 12.5988 8.84962 12.4656 8.98443L8.95559 12.4078C8.82078 12.541 8.73252 12.7141 8.70389 12.9014C8.67527 13.0888 8.70782 13.2804 8.79671 13.4478L11.1367 17.7811C10.5301 18.8653 10.0457 20.0134 9.69226 21.2044L4.91115 22.6489C4.73193 22.7042 4.57505 22.8153 4.46333 22.966C4.35162 23.1167 4.29091 23.2991 4.29004 23.4867V28.3689C4.29091 28.5564 4.35162 28.7388 4.46333 28.8895C4.57505 29.0402 4.73193 29.1513 4.91115 29.2067L9.72115 30.6511C10.0784 31.8223 10.5628 32.9508 11.1656 34.0167L8.79671 38.5522C8.70782 38.7196 8.67527 38.9112 8.70389 39.0985C8.73252 39.2859 8.82078 39.459 8.95559 39.5922L12.4078 43.0444C12.541 43.1792 12.7142 43.2675 12.9015 43.2961C13.0888 43.3248 13.2804 43.2922 13.4478 43.2033L17.9111 40.82C18.967 41.3897 20.0807 41.8449 21.2334 42.1778L22.6778 47.0455C22.7332 47.2248 22.8443 47.3816 22.9949 47.4934C23.1456 47.6051 23.328 47.6658 23.5156 47.6667H28.3978C28.5854 47.6658 28.7678 47.6051 28.9185 47.4934C29.0691 47.3816 29.1802 47.2248 29.2356 47.0455L30.68 42.1633C31.8228 41.8287 32.9268 41.3736 33.9734 40.8055L38.4656 43.2033C38.633 43.2922 38.8246 43.3248 39.0119 43.2961C39.1993 43.2675 39.3724 43.1792 39.5056 43.0444L42.9578 39.5922C43.0926 39.459 43.1809 39.2859 43.2095 39.0985C43.2381 38.9112 43.2056 38.7196 43.1167 38.5522L40.7189 34.0744C41.2929 33.0239 41.7529 31.915 42.0911 30.7667L46.9589 29.3222C47.1381 29.2669 47.295 29.1558 47.4067 29.0051C47.5185 28.8544 47.5792 28.672 47.58 28.4844V23.5589C47.5886 23.3793 47.5419 23.2013 47.4464 23.049C47.3509 22.8967 47.211 22.7772 47.0456 22.7067ZM26 33.9444C24.4288 33.9444 22.8928 33.4785 21.5863 32.6055C20.2799 31.7326 19.2616 30.4919 18.6603 29.0402C18.059 27.5885 17.9017 25.9912 18.2082 24.4501C18.5148 22.909 19.2714 21.4935 20.3825 20.3824C21.4935 19.2714 22.9091 18.5147 24.4502 18.2082C25.9912 17.9017 27.5886 18.059 29.0402 18.6603C30.4919 19.2616 31.7327 20.2798 32.6056 21.5863C33.4785 22.8927 33.9445 24.4287 33.9445 26C33.9445 28.107 33.1075 30.1277 31.6176 31.6176C30.1277 33.1074 28.107 33.9444 26 33.9444Z" fill="white"/>
</g>
<defs>
<clipPath id="clip0_58_58">
<rect width="52" height="52" fill="white"/>
</clipPath>
</defs>
</svg>
