<svg width="51" height="51" viewBox="0 0 51 51" fill="none" xmlns="http://www.w3.org/2000/svg">
<path d="M8.76562 25.4502C8.76562 25.8165 8.83777 26.1791 8.97793 26.5175C9.11809 26.8559 9.32353 27.1634 9.58252 27.4224C9.84151 27.6813 10.149 27.8868 10.4874 28.027C10.8257 28.1671 11.1884 28.2393 11.5547 28.2393C11.921 28.2393 12.2836 28.1671 12.622 28.027C12.9604 27.8868 13.2679 27.6813 13.5269 27.4224C13.7858 27.1634 13.9913 26.8559 14.1314 26.5175C14.2716 26.1791 14.3438 25.8165 14.3438 25.4502C14.3438 25.0839 14.2716 24.7213 14.1314 24.3829C13.9913 24.0445 13.7858 23.737 13.5269 23.478C13.2679 23.219 12.9604 23.0136 12.622 22.8734C12.2836 22.7333 11.921 22.6611 11.5547 22.6611C11.1884 22.6611 10.8257 22.7333 10.4874 22.8734C10.149 23.0136 9.84151 23.219 9.58252 23.478C9.32353 23.737 9.11809 24.0445 8.97793 24.3829C8.83777 24.7213 8.76562 25.0839 8.76562 25.4502ZM22.7109 25.4502C22.7109 26.1899 23.0048 26.8993 23.5278 27.4224C24.0509 27.9454 24.7603 28.2393 25.5 28.2393C26.2397 28.2393 26.9491 27.9454 27.4722 27.4224C27.9952 26.8993 28.2891 26.1899 28.2891 25.4502C28.2891 24.7105 27.9952 24.0011 27.4722 23.478C26.9491 22.955 26.2397 22.6611 25.5 22.6611C24.7603 22.6611 24.0509 22.955 23.5278 23.478C23.0048 24.0011 22.7109 24.7105 22.7109 25.4502ZM36.6562 25.4502C36.6562 26.1899 36.9501 26.8993 37.4731 27.4224C37.9962 27.9454 38.7056 28.2393 39.4453 28.2393C40.185 28.2393 40.8944 27.9454 41.4175 27.4224C41.9405 26.8993 42.2344 26.1899 42.2344 25.4502C42.2344 24.7105 41.9405 24.0011 41.4175 23.478C40.8944 22.955 40.185 22.6611 39.4453 22.6611C38.7056 22.6611 37.9962 22.955 37.4731 23.478C36.9501 24.0011 36.6562 24.7105 36.6562 25.4502Z" fill="white"/>
</svg>
